<?xml version="1.0" standalone="no"?>
<!DOCTYPE svg PUBLIC "-//W3C//DTD SVG 20010904//EN"
 "http://www.w3.org/TR/2001/REC-SVG-20010904/DTD/svg10.dtd">
<svg version="1.0" xmlns="http://www.w3.org/2000/svg"
 width="480.000000pt" height="66.000000pt" viewBox="0 0 480.000000 66.000000"
 preserveAspectRatio="xMidYMid meet">
<metadata>
Created by potrace 1.16, written by Peter Selinger 2001-2019
</metadata>
<g transform="translate(0.000000,66.000000) scale(0.100000,-0.100000)"
fill="#000000" stroke="none">
<path d="M0 330 l0 -330 440 0 440 0 0 330 0 330 -440 0 -440 0 0 -330z"/>
<path d="M920 650 c0 -5 5 -10 10 -10 6 0 10 -110 10 -310 0 -200 -4 -310 -10
-310 -5 0 -10 -4 -10 -10 0 -7 653 -10 1940 -10 l1940 0 0 330 0 330 -1940 0
c-1287 0 -1940 -3 -1940 -10z"/>
<path d="M900 550 c0 -40 4 -70 10 -70 6 0 10 30 10 70 0 40 -4 70 -10 70 -6
0 -10 -30 -10 -70z"/>
<path d="M900 70 c0 -16 5 -30 10 -30 6 0 10 14 10 30 0 17 -4 30 -10 30 -5 0
-10 -13 -10 -30z"/>
</g>
</svg>
