<?xml version="1.0" standalone="no"?>
<!DOCTYPE svg PUBLIC "-//W3C//DTD SVG 20010904//EN"
 "http://www.w3.org/TR/2001/REC-SVG-20010904/DTD/svg10.dtd">
<svg version="1.0" xmlns="http://www.w3.org/2000/svg"
 width="480.000000pt" height="66.000000pt" viewBox="0 0 480.000000 66.000000"
 preserveAspectRatio="xMidYMid meet">
<metadata>
Created by potrace 1.16, written by Peter Selinger 2001-2019
</metadata>
<g transform="translate(0.000000,66.000000) scale(0.100000,-0.100000)"
fill="#000000" stroke="none">
<path d="M0 330 l0 -330 440 0 c287 0 440 3 440 10 0 6 9 10 20 10 11 0 20 -4
20 -10 0 -7 653 -10 1940 -10 1933 0 1940 0 1940 20 0 20 -7 20 -1930 20
-1280 0 -1930 -3 -1930 -10 0 -5 -4 -10 -10 -10 -6 0 -10 110 -10 310 0 200 4
310 10 310 6 0 10 -4 10 -10 0 -7 650 -10 1930 -10 1923 0 1930 0 1930 20 0
20 -7 20 -1940 20 -1287 0 -1940 -3 -1940 -10 0 -5 -9 -10 -20 -10 -11 0 -20
5 -20 10 0 7 -153 10 -440 10 l-440 0 0 -330z"/>
<path d="M940 330 l0 -270 30 0 30 0 0 130 0 130 30 0 30 0 0 -110 0 -110 90
0 90 0 0 110 0 110 30 0 30 0 0 -130 0 -130 30 0 30 0 0 80 0 80 30 0 30 0 0
-60 0 -60 30 0 30 0 0 90 0 90 -46 0 c-71 0 -74 7 -74 174 l0 146 -30 0 -30 0
0 -130 0 -130 -30 0 -30 0 0 110 0 110 -90 0 -90 0 0 -110 0 -110 -30 0 -30 0
0 130 0 130 -30 0 -30 0 0 -270z m240 140 c0 -27 -3 -30 -30 -30 -27 0 -30 3
-30 30 0 27 3 30 30 30 27 0 30 -3 30 -30z m0 -140 c0 -49 -1 -50 -30 -50 -29
0 -30 1 -30 50 0 49 1 50 30 50 29 0 30 -1 30 -50z m0 -140 c0 -27 -3 -30 -30
-30 -27 0 -30 3 -30 30 0 27 3 30 30 30 27 0 30 -3 30 -30z"/>
<path d="M1140 330 c0 -5 5 -10 10 -10 6 0 10 5 10 10 0 6 -4 10 -10 10 -5 0
-10 -4 -10 -10z"/>
<path d="M1420 470 l0 -130 30 0 30 0 0 130 0 130 -30 0 -30 0 0 -130z"/>
<path d="M1540 330 l0 -270 30 0 30 0 0 130 0 130 30 0 30 0 0 -110 0 -110 60
0 c53 0 60 -2 60 -20 0 -16 7 -20 30 -20 l30 0 0 270 0 270 -30 0 c-23 0 -30
-4 -30 -20 0 -16 -7 -20 -30 -20 -23 0 -30 4 -30 20 0 16 -7 20 -30 20 l-30 0
0 -130 0 -130 -30 0 -30 0 0 130 0 130 -30 0 -30 0 0 -270z m240 140 c0 -27
-3 -30 -30 -30 -27 0 -30 3 -30 30 0 27 3 30 30 30 27 0 30 -3 30 -30z m0
-140 c0 -49 -1 -50 -30 -50 -29 0 -30 1 -30 50 0 49 1 50 30 50 29 0 30 -1 30
-50z m0 -140 c0 -27 -3 -30 -30 -30 -27 0 -30 3 -30 30 0 27 3 30 30 30 27 0
30 -3 30 -30z"/>
<path d="M1740 330 c0 -5 5 -10 10 -10 6 0 10 5 10 10 0 6 -4 10 -10 10 -5 0
-10 -4 -10 -10z"/>
<path d="M2020 330 l0 -270 30 0 30 0 0 130 0 130 30 0 30 0 0 -130 0 -130 30
0 30 0 0 130 0 130 30 0 30 0 0 -130 0 -130 30 0 30 0 0 130 0 130 30 0 30 0
0 -130 0 -130 30 0 c23 0 30 4 30 20 0 16 7 20 30 20 23 0 30 -4 30 -20 0 -16
7 -20 30 -20 l30 0 0 130 0 130 30 0 30 0 0 -130 0 -130 30 0 30 0 0 270 0
270 -30 0 -30 0 0 -130 0 -130 -30 0 -30 0 0 110 0 110 -30 0 -30 0 0 -140 0
-140 -30 0 -30 0 0 140 0 140 -30 0 -30 0 0 -110 0 -110 -30 0 -30 0 0 130 0
130 -30 0 -30 0 0 -130 0 -130 -30 0 -30 0 0 110 0 110 -30 0 -30 0 0 -110 0
-110 -30 0 -30 0 0 130 0 130 -30 0 -30 0 0 -270z m480 -140 c0 -27 -3 -30
-30 -30 -27 0 -30 3 -30 30 0 27 3 30 30 30 27 0 30 -3 30 -30z"/>
<path d="M2860 330 l0 -270 30 0 30 0 0 270 0 270 -30 0 -30 0 0 -270z"/>
<path d="M3100 440 c0 -100 -4 -160 -10 -160 -5 0 -10 -13 -10 -30 0 -16 5
-30 10 -30 6 0 10 -33 10 -80 l0 -80 50 0 c54 0 61 7 30 30 -18 13 -20 26 -20
122 l0 108 30 0 30 0 0 -96 c0 -71 4 -99 15 -110 13 -14 17 -14 30 0 11 11 15
39 15 110 l0 96 30 0 30 0 0 -108 c0 -96 -2 -109 -20 -122 -31 -23 -24 -30 30
-30 l50 0 0 130 0 130 80 0 c73 0 80 -2 80 -20 0 -17 -7 -20 -50 -20 l-50 0 0
-90 0 -90 60 0 c53 0 60 -2 60 -20 0 -16 7 -20 30 -20 l30 0 0 130 0 130 30 0
30 0 0 -110 0 -110 60 0 c53 0 60 -2 60 -20 0 -16 7 -20 30 -20 23 0 30 4 30
20 0 16 7 20 30 20 23 0 30 -4 30 -20 0 -16 7 -20 30 -20 l30 0 0 130 0 130
30 0 30 0 0 -96 c0 -71 4 -99 15 -110 24 -24 45 5 45 60 0 44 1 46 30 46 l30
0 0 -80 0 -80 30 0 30 0 0 130 0 130 30 0 30 0 0 -110 0 -110 30 0 30 0 0 110
0 110 30 0 30 0 0 -130 0 -130 30 0 30 0 0 130 0 130 30 0 30 0 0 -130 0 -130
30 0 c23 0 30 4 30 20 0 16 7 20 30 20 23 0 30 -4 30 -20 0 -16 7 -20 30 -20
l30 0 0 130 0 130 30 0 30 0 0 -130 c0 -80 4 -130 10 -130 6 0 10 97 10 270 0
173 -4 270 -10 270 -6 0 -10 -50 -10 -130 l0 -130 -30 0 -30 0 0 110 0 110
-30 0 -30 0 0 -140 0 -140 -30 0 -30 0 0 140 0 140 -30 0 -30 0 0 -110 0 -110
-30 0 -30 0 0 130 0 130 -30 0 -30 0 0 -130 0 -130 -30 0 -30 0 0 110 0 110
-30 0 -30 0 0 -110 0 -110 -30 0 -30 0 0 130 0 130 -30 0 -30 0 0 -80 0 -80
-30 0 c-29 0 -30 2 -30 46 0 55 -21 84 -45 60 -11 -11 -15 -39 -15 -110 l0
-96 -30 0 -30 0 0 130 0 130 -30 0 c-23 0 -30 -4 -30 -20 0 -16 -7 -20 -30
-20 -23 0 -30 4 -30 20 0 16 -7 20 -30 20 -23 0 -30 -4 -30 -20 0 -16 -7 -20
-30 -20 -23 0 -30 4 -30 20 0 16 -7 20 -30 20 l-30 0 0 -130 0 -130 -30 0 -30
0 0 130 0 130 -30 0 c-23 0 -30 -4 -30 -20 0 -18 -7 -20 -60 -20 l-60 0 0 -90
0 -90 50 0 c43 0 50 -3 50 -20 0 -18 -7 -20 -80 -20 l-80 0 0 130 0 130 -30 0
-30 0 0 -130 0 -130 -30 0 -30 0 0 130 0 130 -30 0 -30 0 0 -130 0 -130 -30 0
-30 0 0 130 0 130 -30 0 -30 0 0 -160z m480 30 c0 -27 -3 -30 -30 -30 -27 0
-30 3 -30 30 0 27 3 30 30 30 27 0 30 -3 30 -30z m240 0 c0 -27 -3 -30 -30
-30 -27 0 -30 3 -30 30 0 27 3 30 30 30 27 0 30 -3 30 -30z m120 0 c0 -27 -3
-30 -30 -30 -27 0 -30 3 -30 30 0 27 3 30 30 30 27 0 30 -3 30 -30z m-120
-140 c0 -49 -1 -50 -30 -50 -29 0 -30 1 -30 50 0 49 1 50 30 50 29 0 30 -1 30
-50z m120 0 c0 -49 -1 -50 -30 -50 -29 0 -30 1 -30 50 0 49 1 50 30 50 29 0
30 -1 30 -50z m-360 -140 c0 -27 -3 -30 -30 -30 -27 0 -30 3 -30 30 0 27 3 30
30 30 27 0 30 -3 30 -30z m240 0 c0 -27 -3 -30 -30 -30 -27 0 -30 3 -30 30 0
27 3 30 30 30 27 0 30 -3 30 -30z m120 0 c0 -27 -3 -30 -30 -30 -27 0 -30 3
-30 30 0 27 3 30 30 30 27 0 30 -3 30 -30z m720 0 c0 -27 -3 -30 -30 -30 -27
0 -30 3 -30 30 0 27 3 30 30 30 27 0 30 -3 30 -30z"/>
<path d="M1900 470 l0 -90 30 0 30 0 0 90 0 90 -30 0 -30 0 0 -90z m40 0 c0
-40 -4 -70 -10 -70 -6 0 -10 30 -10 70 0 40 4 70 10 70 6 0 10 -30 10 -70z"/>
<path d="M2740 470 l0 -90 30 0 30 0 0 90 0 90 -30 0 -30 0 0 -90z m40 0 c0
-40 -4 -70 -10 -70 -6 0 -10 30 -10 70 0 40 4 70 10 70 6 0 10 -30 10 -70z"/>
<path d="M2980 470 l0 -90 30 0 30 0 0 90 0 90 -30 0 -30 0 0 -90z m40 0 c0
-40 -4 -70 -10 -70 -6 0 -10 30 -10 70 0 40 4 70 10 70 6 0 10 -30 10 -70z"/>
<path d="M1920 330 c0 -5 5 -10 10 -10 6 0 10 5 10 10 0 6 -4 10 -10 10 -5 0
-10 -4 -10 -10z"/>
<path d="M2460 330 c0 -5 5 -10 10 -10 6 0 10 5 10 10 0 6 -4 10 -10 10 -5 0
-10 -4 -10 -10z"/>
<path d="M2760 330 c0 -5 5 -10 10 -10 6 0 10 5 10 10 0 6 -4 10 -10 10 -5 0
-10 -4 -10 -10z"/>
<path d="M3000 330 c0 -5 5 -10 10 -10 6 0 10 5 10 10 0 6 -4 10 -10 10 -5 0
-10 -4 -10 -10z"/>
<path d="M4620 330 c0 -5 5 -10 10 -10 6 0 10 5 10 10 0 6 -4 10 -10 10 -5 0
-10 -4 -10 -10z"/>
<path d="M1900 170 l0 -110 30 0 30 0 0 110 0 110 -30 0 -30 0 0 -110z"/>
<path d="M2740 170 l0 -110 30 0 30 0 0 110 0 110 -30 0 -30 0 0 -110z"/>
<path d="M2980 170 l0 -110 30 0 30 0 0 80 c0 47 -4 80 -10 80 -5 0 -10 9 -10
20 0 11 5 20 10 20 6 0 10 5 10 10 0 6 -13 10 -30 10 l-30 0 0 -110z"/>
<path d="M3900 70 c0 -5 5 -10 10 -10 6 0 10 5 10 10 0 6 -4 10 -10 10 -5 0
-10 -4 -10 -10z"/>
</g>
</svg>
