<?xml version="1.0" standalone="no"?>
<!DOCTYPE svg PUBLIC "-//W3C//DTD SVG 20010904//EN"
 "http://www.w3.org/TR/2001/REC-SVG-20010904/DTD/svg10.dtd">
<svg version="1.0" xmlns="http://www.w3.org/2000/svg"
 width="480.000000pt" height="66.000000pt" viewBox="0 0 480.000000 66.000000"
 preserveAspectRatio="xMidYMid meet">
<metadata>
Created by potrace 1.16, written by Peter Selinger 2001-2019
</metadata>
<g transform="translate(0.000000,66.000000) scale(0.100000,-0.100000)"
fill="#000000" stroke="none">
<path d="M0 330 l0 -330 440 0 c287 0 440 3 440 10 0 6 -60 10 -160 10 l-160
0 0 310 0 310 160 0 c100 0 160 4 160 10 0 7 -153 10 -440 10 l-440 0 0 -330z"/>
<path d="M920 650 c0 -5 5 -10 10 -10 6 0 10 -110 10 -310 0 -200 -4 -310 -10
-310 -5 0 -10 -4 -10 -10 0 -7 653 -10 1940 -10 l1940 0 0 330 0 330 -1940 0
c-1287 0 -1940 -3 -1940 -10z"/>
<path d="M580 550 c0 -69 1 -70 26 -70 37 0 54 22 54 70 0 48 -17 70 -54 70
-25 0 -26 -1 -26 -70z m60 0 c0 -43 -3 -50 -20 -50 -17 0 -20 7 -20 50 0 43 3
50 20 50 17 0 20 -7 20 -50z"/>
<path d="M693 605 c-15 -17 -17 -125 -3 -125 6 0 10 23 10 50 0 28 5 50 10 50
6 0 10 -22 10 -50 0 -27 5 -50 10 -50 6 0 10 23 10 50 0 28 5 50 10 50 6 0 10
-22 10 -50 0 -27 5 -50 10 -50 17 0 12 109 -6 127 -13 14 -17 14 -26 2 -7 -11
-11 -11 -15 -1 -6 16 -15 15 -30 -3z"/>
<path d="M852 584 c-11 -12 -10 -17 3 -30 9 -9 19 -13 23 -10 3 4 0 12 -8 17
-11 8 -12 12 -2 16 13 5 17 23 5 23 -5 -1 -14 -7 -21 -16z"/>
<path d="M800 570 c0 -5 5 -10 10 -10 6 0 10 5 10 10 0 6 -4 10 -10 10 -5 0
-10 -4 -10 -10z"/>
<path d="M900 570 c0 -5 5 -10 10 -10 6 0 10 5 10 10 0 6 -4 10 -10 10 -5 0
-10 -4 -10 -10z"/>
<path d="M800 510 c0 -6 27 -10 60 -10 33 0 60 4 60 10 0 6 -27 10 -60 10 -33
0 -60 -4 -60 -10z"/>
<path d="M640 325 c0 -131 1 -137 25 -160 23 -24 30 -25 140 -25 70 0 115 4
115 10 0 6 -45 10 -116 10 -87 0 -119 4 -130 14 -11 11 -14 46 -14 150 0 84
-4 136 -10 136 -6 0 -10 -52 -10 -135z"/>
<path d="M580 70 c0 -28 2 -30 40 -30 38 0 40 2 40 30 0 28 -2 30 -40 30 -38
0 -40 -2 -40 -30z"/>
</g>
</svg>
