<?xml version="1.0" standalone="no"?>
<!DOCTYPE svg PUBLIC "-//W3C//DTD SVG 20010904//EN"
 "http://www.w3.org/TR/2001/REC-SVG-20010904/DTD/svg10.dtd">
<svg version="1.0" xmlns="http://www.w3.org/2000/svg"
 width="480.000000pt" height="66.000000pt" viewBox="0 0 480.000000 66.000000"
 preserveAspectRatio="xMidYMid meet">
<metadata>
Created by potrace 1.16, written by Peter Selinger 2001-2019
</metadata>
<g transform="translate(0.000000,66.000000) scale(0.100000,-0.100000)"
fill="#000000" stroke="none">
<path d="M0 330 l0 -330 440 0 c287 0 440 3 440 10 0 6 9 10 20 10 11 0 20 -4
20 -10 0 -7 653 -10 1940 -10 l1940 0 0 110 0 110 -1930 0 -1930 0 0 -100 c0
-60 -4 -100 -10 -100 -6 0 -10 110 -10 310 0 200 4 310 10 310 6 0 10 -40 10
-100 l0 -100 1930 0 1930 0 0 110 0 110 -1940 0 c-1287 0 -1940 -3 -1940 -10
0 -5 -9 -10 -20 -10 -11 0 -20 5 -20 10 0 7 -153 10 -440 10 l-440 0 0 -330z"/>
<path d="M940 330 l0 -90 30 0 c28 0 30 2 30 40 0 38 2 40 30 40 28 0 30 -2
30 -40 l0 -40 90 0 90 0 0 40 c0 38 2 40 30 40 28 0 30 -2 30 -40 l0 -40 90 0
c83 0 90 1 90 20 0 17 -7 20 -46 20 -60 0 -74 15 -74 84 0 56 0 56 -30 56 -28
0 -30 -2 -30 -40 0 -38 -2 -40 -30 -40 -28 0 -30 2 -30 40 l0 40 -90 0 -90 0
0 -40 c0 -38 -2 -40 -30 -40 -28 0 -30 2 -30 40 0 38 -2 40 -30 40 l-30 0 0
-90z m240 0 c0 -49 -1 -50 -30 -50 -29 0 -30 1 -30 50 0 49 1 50 30 50 29 0
30 -1 30 -50z"/>
<path d="M1140 330 c0 -5 5 -10 10 -10 6 0 10 5 10 10 0 6 -4 10 -10 10 -5 0
-10 -4 -10 -10z"/>
<path d="M1420 380 c0 -38 2 -40 30 -40 28 0 30 2 30 40 0 38 -2 40 -30 40
-28 0 -30 -2 -30 -40z"/>
<path d="M1540 330 l0 -90 30 0 c28 0 30 2 30 40 0 38 2 40 30 40 28 0 30 -2
30 -40 l0 -40 90 0 90 0 0 90 0 90 -90 0 -90 0 0 -40 c0 -38 -2 -40 -30 -40
-28 0 -30 2 -30 40 0 38 -2 40 -30 40 l-30 0 0 -90z m240 0 c0 -49 -1 -50 -30
-50 -29 0 -30 1 -30 50 0 49 1 50 30 50 29 0 30 -1 30 -50z"/>
<path d="M1740 330 c0 -5 5 -10 10 -10 6 0 10 5 10 10 0 6 -4 10 -10 10 -5 0
-10 -4 -10 -10z"/>
<path d="M1900 400 c0 -16 7 -20 30 -20 23 0 30 4 30 20 0 22 -15 27 -24 8 -5
-10 -7 -10 -12 0 -9 19 -24 14 -24 -8z"/>
<path d="M2020 330 l0 -90 30 0 c28 0 30 2 30 40 0 38 2 40 30 40 28 0 30 -2
30 -40 0 -38 2 -40 30 -40 28 0 30 2 30 40 0 38 2 40 30 40 28 0 30 -2 30 -40
0 -38 2 -40 30 -40 28 0 30 2 30 40 0 38 2 40 30 40 28 0 30 -2 30 -40 l0 -40
90 0 90 0 0 40 c0 38 2 40 30 40 28 0 30 -2 30 -40 0 -38 2 -40 30 -40 l30 0
0 90 0 90 -30 0 c-28 0 -30 -2 -30 -40 0 -38 -2 -40 -30 -40 -28 0 -30 2 -30
40 0 38 -2 40 -30 40 l-30 0 0 -70 0 -70 -30 0 -30 0 0 70 0 70 -30 0 c-28 0
-30 -2 -30 -40 0 -38 -2 -40 -30 -40 -28 0 -30 2 -30 40 0 38 -2 40 -30 40
-28 0 -30 -2 -30 -40 0 -38 -2 -40 -30 -40 -28 0 -30 2 -30 40 0 38 -2 40 -30
40 -28 0 -30 -2 -30 -40 0 -38 -2 -40 -30 -40 -28 0 -30 2 -30 40 0 38 -2 40
-30 40 l-30 0 0 -90z"/>
<path d="M2740 400 c0 -16 7 -20 30 -20 23 0 30 4 30 20 0 22 -15 27 -24 8 -5
-10 -7 -10 -12 0 -9 19 -24 14 -24 -8z"/>
<path d="M2860 330 l0 -90 30 0 30 0 0 90 0 90 -30 0 -30 0 0 -90z"/>
<path d="M2980 400 c0 -16 7 -20 30 -20 23 0 30 4 30 20 0 22 -15 27 -24 8 -5
-10 -7 -10 -12 0 -9 19 -24 14 -24 -8z"/>
<path d="M3100 350 c0 -40 -4 -70 -10 -70 -5 0 -10 -9 -10 -20 0 -17 7 -20 40
-20 l40 0 0 40 c0 38 2 40 30 40 28 0 30 -2 30 -40 0 -38 2 -40 30 -40 28 0
30 2 30 40 0 38 2 40 30 40 28 0 30 -2 30 -40 0 -38 2 -40 30 -40 28 0 30 2
30 40 l0 40 80 0 c73 0 80 -2 80 -20 0 -17 -7 -20 -50 -20 -43 0 -50 -3 -50
-20 0 -19 7 -20 90 -20 l90 0 0 40 c0 38 2 40 30 40 28 0 30 -2 30 -40 l0 -40
150 0 150 0 0 40 c0 38 2 40 30 40 28 0 30 -2 30 -40 l0 -40 90 0 90 0 0 40
c0 38 2 40 30 40 28 0 30 -2 30 -40 0 -38 2 -40 30 -40 28 0 30 2 30 40 0 38
2 40 30 40 28 0 30 -2 30 -40 0 -38 2 -40 30 -40 28 0 30 2 30 40 0 38 2 40
30 40 28 0 30 -2 30 -40 l0 -40 90 0 90 0 0 40 c0 38 2 40 30 40 28 0 30 -2
30 -40 0 -22 5 -40 10 -40 6 0 10 37 10 90 0 53 -4 90 -10 90 -5 0 -10 -18
-10 -40 0 -38 -2 -40 -30 -40 -28 0 -30 2 -30 40 0 38 -2 40 -30 40 l-30 0 0
-70 0 -70 -30 0 -30 0 0 70 0 70 -30 0 c-28 0 -30 -2 -30 -40 0 -38 -2 -40
-30 -40 -28 0 -30 2 -30 40 0 38 -2 40 -30 40 -28 0 -30 -2 -30 -40 0 -38 -2
-40 -30 -40 -28 0 -30 2 -30 40 0 38 -2 40 -30 40 -28 0 -30 -2 -30 -40 0 -38
-2 -40 -30 -40 -28 0 -30 2 -30 40 l0 40 -90 0 -90 0 0 -40 c0 -38 -2 -40 -30
-40 -28 0 -30 2 -30 40 l0 40 -150 0 -150 0 0 -40 c0 -38 -2 -40 -30 -40 -28
0 -30 2 -30 40 l0 40 -90 0 c-83 0 -90 -1 -90 -20 0 -17 7 -20 50 -20 43 0 50
-3 50 -20 0 -18 -7 -20 -80 -20 l-80 0 0 40 c0 38 -2 40 -30 40 -28 0 -30 -2
-30 -40 0 -38 -2 -40 -30 -40 -28 0 -30 2 -30 40 0 38 -2 40 -30 40 -28 0 -30
-2 -30 -40 0 -38 -2 -40 -30 -40 -28 0 -30 2 -30 40 0 38 -2 40 -30 40 l-30 0
0 -70z m720 -20 c0 -49 -1 -50 -30 -50 -29 0 -30 1 -30 50 0 49 1 50 30 50 29
0 30 -1 30 -50z m120 0 c0 -49 -1 -50 -30 -50 -29 0 -30 1 -30 50 0 49 1 50
30 50 29 0 30 -1 30 -50z"/>
<path d="M1920 330 c0 -5 5 -10 10 -10 6 0 10 5 10 10 0 6 -4 10 -10 10 -5 0
-10 -4 -10 -10z"/>
<path d="M2460 330 c0 -5 5 -10 10 -10 6 0 10 5 10 10 0 6 -4 10 -10 10 -5 0
-10 -4 -10 -10z"/>
<path d="M2760 330 c0 -5 5 -10 10 -10 6 0 10 5 10 10 0 6 -4 10 -10 10 -5 0
-10 -4 -10 -10z"/>
<path d="M3000 330 c0 -5 5 -10 10 -10 6 0 10 5 10 10 0 6 -4 10 -10 10 -5 0
-10 -4 -10 -10z"/>
<path d="M4620 330 c0 -5 5 -10 10 -10 6 0 10 5 10 10 0 6 -4 10 -10 10 -5 0
-10 -4 -10 -10z"/>
<path d="M1900 260 c0 -16 7 -20 30 -20 23 0 30 4 30 20 0 16 -7 20 -30 20
-23 0 -30 -4 -30 -20z"/>
<path d="M2740 260 c0 -16 7 -20 30 -20 23 0 30 4 30 20 0 16 -7 20 -30 20
-23 0 -30 -4 -30 -20z"/>
<path d="M2980 260 c0 -23 25 -27 46 -6 21 21 18 26 -16 26 -23 0 -30 -4 -30
-20z"/>
</g>
</svg>
