<?xml version="1.0" standalone="no"?>
<!DOCTYPE svg PUBLIC "-//W3C//DTD SVG 20010904//EN"
 "http://www.w3.org/TR/2001/REC-SVG-20010904/DTD/svg10.dtd">
<svg version="1.0" xmlns="http://www.w3.org/2000/svg"
 width="480.000000pt" height="66.000000pt" viewBox="0 0 480.000000 66.000000"
 preserveAspectRatio="xMidYMid meet">
<metadata>
Created by potrace 1.16, written by Peter Selinger 2001-2019
</metadata>
<g transform="translate(0.000000,66.000000) scale(0.100000,-0.100000)"
fill="#000000" stroke="none">
<path d="M0 330 l0 -330 440 0 c287 0 440 3 440 10 0 6 9 10 20 10 11 0 20 -4
20 -10 0 -7 653 -10 1940 -10 l1940 0 0 160 0 160 -1930 0 -1930 0 0 -150 c0
-93 -4 -150 -10 -150 -6 0 -10 110 -10 310 0 200 4 310 10 310 6 0 10 -57 10
-150 l0 -150 1930 0 1930 0 0 160 0 160 -1940 0 c-1287 0 -1940 -3 -1940 -10
0 -5 -9 -10 -20 -10 -11 0 -20 5 -20 10 0 7 -153 10 -440 10 l-440 0 0 -330z"/>
</g>
</svg>
