<?xml version="1.0" standalone="no"?>
<!DOCTYPE svg PUBLIC "-//W3C//DTD SVG 20010904//EN"
 "http://www.w3.org/TR/2001/REC-SVG-20010904/DTD/svg10.dtd">
<svg version="1.0" xmlns="http://www.w3.org/2000/svg"
 width="480.000000pt" height="66.000000pt" viewBox="0 0 480.000000 66.000000"
 preserveAspectRatio="xMidYMid meet">
<metadata>
Created by potrace 1.16, written by Peter Selinger 2001-2019
</metadata>
<g transform="translate(0.000000,66.000000) scale(0.100000,-0.100000)"
fill="#000000" stroke="none">
<path d="M0 330 l0 -330 440 0 c287 0 440 3 440 10 0 6 9 10 20 10 11 0 20 -4
20 -10 0 -7 653 -10 1940 -10 l1940 0 0 330 0 330 -1940 0 c-1287 0 -1940 -3
-1940 -10 0 -5 -9 -10 -20 -10 -11 0 -20 5 -20 10 0 7 -153 10 -440 10 l-440
0 0 -330z m940 0 c0 -200 -4 -310 -10 -310 -6 0 -10 110 -10 310 0 200 4 310
10 310 6 0 10 -110 10 -310z m346 276 c11 -11 14 -45 14 -140 l0 -126 -30 0
-30 0 0 110 0 110 -90 0 -90 0 0 -110 0 -110 -30 0 -30 0 0 140 0 140 136 0
c104 0 139 -3 150 -14z m134 -126 l0 -140 30 0 30 0 0 140 0 140 30 0 30 0 0
-276 c0 -225 -3 -278 -14 -290 -20 -19 -132 -19 -152 0 -10 10 -14 38 -14 90
l0 76 30 0 30 0 0 -60 0 -60 30 0 30 0 0 90 0 90 -46 0 c-72 0 -74 6 -74 184
l0 156 30 0 30 0 0 -140z m240 0 l0 -140 -30 0 -30 0 0 140 0 140 30 0 30 0 0
-140z m120 110 c0 -27 -3 -30 -30 -30 -27 0 -30 3 -30 30 0 27 3 30 30 30 27
0 30 -3 30 -30z m226 16 c11 -12 14 -65 14 -290 l0 -276 -30 0 -30 0 0 120 0
120 -30 0 -30 0 0 -120 0 -120 -30 0 -30 0 0 275 c0 207 3 279 13 290 17 20
133 20 153 1z m240 0 c11 -11 14 -45 14 -140 l0 -126 -30 0 -30 0 0 110 0 110
-30 0 -30 0 0 -110 0 -110 -30 0 -30 0 0 125 c0 87 4 130 13 140 17 20 133 20
153 1z m218 2 c5 -10 7 -10 12 0 8 17 111 16 130 -2 11 -11 14 -45 14 -140 l0
-126 -30 0 -30 0 0 110 0 110 -30 0 -30 0 0 -140 0 -140 -30 0 -30 0 0 140 0
140 -30 0 -30 0 0 -110 0 -110 -30 0 -30 0 0 125 c0 87 4 130 13 140 16 18
123 20 131 3z m382 -2 c11 -12 14 -65 14 -290 l0 -276 -30 0 -30 0 0 120 0
120 -30 0 -30 0 0 -120 0 -120 -30 0 -30 0 0 275 c0 207 3 279 13 290 17 20
133 20 153 1z m240 0 c11 -11 14 -49 14 -170 0 -97 -4 -156 -10 -156 -5 0 -10
-13 -10 -30 0 -16 5 -30 10 -30 6 0 10 -37 10 -90 0 -75 -3 -90 -16 -90 -33 0
-44 26 -44 104 0 44 -4 76 -10 76 -5 0 -10 9 -10 20 0 11 5 20 10 20 6 0 10 5
10 10 0 6 -13 10 -30 10 l-30 0 0 -120 0 -120 -30 0 -30 0 0 290 0 290 76 0
c52 0 80 -4 90 -14z m134 -126 l0 -140 -30 0 -30 0 0 140 0 140 30 0 30 0 0
-140z m120 0 l0 -140 -30 0 -30 0 0 140 0 140 30 0 30 0 0 -140z m240 110 l0
-30 -60 0 -60 0 0 -90 0 -90 50 0 c43 0 50 -3 50 -20 0 -18 -7 -20 -80 -20
l-80 0 0 140 0 140 90 0 90 0 0 -30z m120 -110 l0 -140 -30 0 -30 0 0 140 0
140 30 0 30 0 0 -140z m120 110 c0 -27 -3 -30 -30 -30 -27 0 -30 3 -30 30 0
27 3 30 30 30 27 0 30 -3 30 -30z m120 0 c0 -27 -3 -30 -30 -30 -27 0 -30 3
-30 30 0 27 3 30 30 30 27 0 30 -3 30 -30z m226 16 c10 -10 14 -38 14 -90 l0
-76 -30 0 c-29 0 -30 2 -30 46 0 55 -21 84 -45 60 -11 -11 -15 -39 -15 -110
l0 -96 -30 0 -30 0 0 125 c0 87 4 130 13 140 17 20 133 20 153 1z m254 -126
l0 -140 -30 0 -30 0 0 110 0 110 -30 0 -30 0 0 -110 0 -110 -30 0 -30 0 0 140
0 140 90 0 90 0 0 -140z m360 0 l0 -140 -30 0 -30 0 0 110 0 110 -30 0 -30 0
0 -140 0 -140 -30 0 -30 0 0 140 0 140 -30 0 -30 0 0 -110 0 -110 -30 0 -30 0
0 140 0 140 150 0 150 0 0 -140z m-3600 -10 c0 -27 -3 -30 -30 -30 -27 0 -30
3 -30 30 0 27 3 30 30 30 27 0 30 -3 30 -30z m600 0 c0 -27 -3 -30 -30 -30
-27 0 -30 3 -30 30 0 27 3 30 30 30 27 0 30 -3 30 -30z m1800 0 c0 -27 -3 -30
-30 -30 -27 0 -30 3 -30 30 0 27 3 30 30 30 27 0 30 -3 30 -30z m240 0 c0 -27
-3 -30 -30 -30 -27 0 -30 3 -30 30 0 27 3 30 30 30 27 0 30 -3 30 -30z m120 0
c0 -27 -3 -30 -30 -30 -27 0 -30 3 -30 30 0 27 3 30 30 30 27 0 30 -3 30 -30z
m-2760 -140 c0 -49 -1 -50 -30 -50 -29 0 -30 1 -30 50 0 49 1 50 30 50 29 0
30 -1 30 -50z m600 0 c0 -49 -1 -50 -30 -50 -29 0 -30 1 -30 50 0 49 1 50 30
50 29 0 30 -1 30 -50z m2040 0 c0 -49 -1 -50 -30 -50 -29 0 -30 1 -30 50 0 49
1 50 30 50 29 0 30 -1 30 -50z m120 0 c0 -49 -1 -50 -30 -50 -29 0 -30 1 -30
50 0 49 1 50 30 50 29 0 30 -1 30 -50z m-2880 -120 l0 -110 90 0 90 0 0 110 0
110 30 0 30 0 0 -126 c0 -95 -3 -129 -14 -140 -11 -11 -46 -14 -150 -14 l-136
0 0 140 0 140 30 0 30 0 0 -110z m600 0 l0 -110 60 0 60 0 0 -30 0 -30 -76 0
c-52 0 -80 4 -90 14 -11 11 -14 45 -14 140 l0 126 30 0 30 0 0 -110z m480 -30
l0 -140 -30 0 -30 0 0 140 0 140 30 0 30 0 0 -140z m120 0 l0 -140 -30 0 -30
0 0 140 0 140 30 0 30 0 0 -140z m120 0 l0 -140 -30 0 -30 0 0 140 0 140 30 0
30 0 0 -140z m240 0 l0 -140 -30 0 -30 0 0 140 0 140 30 0 30 0 0 -140z m600
44 c0 -71 4 -99 15 -110 13 -14 17 -14 30 0 11 11 15 39 15 110 l0 96 30 0 30
0 0 -105 0 -106 -35 -34 c-19 -19 -44 -35 -55 -35 -11 0 -36 16 -55 35 l-35
34 0 106 0 105 30 0 30 0 0 -96z m340 76 c0 -17 -7 -20 -50 -20 l-50 0 0 -90
0 -90 60 0 60 0 0 -30 0 -30 -76 0 c-52 0 -80 4 -90 14 -11 11 -14 45 -14 140
l0 126 80 0 c73 0 80 -2 80 -20z m140 -90 l0 -110 60 0 60 0 0 -30 0 -30 -76
0 c-52 0 -80 4 -90 14 -11 11 -14 45 -14 140 l0 126 30 0 30 0 0 -110z m360
14 c0 -71 4 -99 15 -110 24 -24 45 5 45 60 0 44 1 46 30 46 l30 0 0 -76 c0
-95 -8 -104 -90 -104 -88 0 -90 4 -90 154 l0 126 30 0 30 0 0 -96z m240 -14
l0 -110 30 0 30 0 0 110 0 110 30 0 30 0 0 -140 0 -140 -90 0 -90 0 0 140 0
140 30 0 30 0 0 -110z m240 -30 l0 -140 -30 0 -30 0 0 140 0 140 30 0 30 0 0
-140z m240 0 l0 -140 -30 0 -30 0 0 140 0 140 30 0 30 0 0 -140z m-3600 10 c0
-27 -3 -30 -30 -30 -27 0 -30 3 -30 30 0 27 3 30 30 30 27 0 30 -3 30 -30z
m600 0 c0 -27 -3 -30 -30 -30 -27 0 -30 3 -30 30 0 27 3 30 30 30 27 0 30 -3
30 -30z m720 0 c0 -27 -3 -30 -30 -30 -27 0 -30 3 -30 30 0 27 3 30 30 30 27
0 30 -3 30 -30z m1080 0 c0 -27 -3 -30 -30 -30 -27 0 -30 3 -30 30 0 27 3 30
30 30 27 0 30 -3 30 -30z m240 0 c0 -27 -3 -30 -30 -30 -27 0 -30 3 -30 30 0
27 3 30 30 30 27 0 30 -3 30 -30z m120 0 c0 -27 -3 -30 -30 -30 -27 0 -30 3
-30 30 0 27 3 30 30 30 27 0 30 -3 30 -30z m720 0 c0 -27 -3 -30 -30 -30 -27
0 -30 3 -30 30 0 27 3 30 30 30 27 0 30 -3 30 -30z m-2160 -120 c0 -27 -3 -30
-30 -30 -27 0 -30 3 -30 30 0 27 3 30 30 30 27 0 30 -3 30 -30z m1440 0 c0
-27 -3 -30 -30 -30 -27 0 -30 3 -30 30 0 27 3 30 30 30 27 0 30 -3 30 -30z
m720 0 c0 -27 -3 -30 -30 -30 -27 0 -30 3 -30 30 0 27 3 30 30 30 27 0 30 -3
30 -30z"/>
<path d="M1900 470 l0 -90 30 0 30 0 0 90 0 90 -30 0 -30 0 0 -90z m40 0 c0
-40 -4 -70 -10 -70 -6 0 -10 30 -10 70 0 40 4 70 10 70 6 0 10 -30 10 -70z"/>
<path d="M1920 330 c0 -5 5 -10 10 -10 6 0 10 5 10 10 0 6 -4 10 -10 10 -5 0
-10 -4 -10 -10z"/>
<path d="M2460 330 c0 -5 5 -10 10 -10 6 0 10 5 10 10 0 6 -4 10 -10 10 -5 0
-10 -4 -10 -10z"/>
<path d="M2740 470 l0 -90 30 0 30 0 0 90 0 90 -30 0 -30 0 0 -90z m40 0 c0
-40 -4 -70 -10 -70 -6 0 -10 30 -10 70 0 40 4 70 10 70 6 0 10 -30 10 -70z"/>
<path d="M2760 330 c0 -5 5 -10 10 -10 6 0 10 5 10 10 0 6 -4 10 -10 10 -5 0
-10 -4 -10 -10z"/>
<path d="M2980 470 l0 -90 30 0 30 0 0 90 0 90 -30 0 -30 0 0 -90z m40 0 c0
-40 -4 -70 -10 -70 -6 0 -10 30 -10 70 0 40 4 70 10 70 6 0 10 -30 10 -70z"/>
<path d="M3000 330 c0 -5 5 -10 10 -10 6 0 10 5 10 10 0 6 -4 10 -10 10 -5 0
-10 -4 -10 -10z"/>
<path d="M4620 330 c0 -5 5 -10 10 -10 6 0 10 5 10 10 0 6 -4 10 -10 10 -5 0
-10 -4 -10 -10z"/>
<path d="M1140 330 c0 -5 5 -10 10 -10 6 0 10 5 10 10 0 6 -4 10 -10 10 -5 0
-10 -4 -10 -10z"/>
<path d="M1740 330 c0 -5 5 -10 10 -10 6 0 10 5 10 10 0 6 -4 10 -10 10 -5 0
-10 -4 -10 -10z"/>
<path d="M3900 70 c0 -5 5 -10 10 -10 6 0 10 5 10 10 0 6 -4 10 -10 10 -5 0
-10 -4 -10 -10z"/>
</g>
</svg>
