<?xml version="1.0" standalone="no"?>
<!DOCTYPE svg PUBLIC "-//W3C//DTD SVG 20010904//EN"
 "http://www.w3.org/TR/2001/REC-SVG-20010904/DTD/svg10.dtd">
<svg version="1.0" xmlns="http://www.w3.org/2000/svg"
 width="480.000000pt" height="66.000000pt" viewBox="0 0 480.000000 66.000000"
 preserveAspectRatio="xMidYMid meet">
<metadata>
Created by potrace 1.16, written by Peter Selinger 2001-2019
</metadata>
<g transform="translate(0.000000,66.000000) scale(0.100000,-0.100000)"
fill="#000000" stroke="none">
<path d="M0 330 l0 -330 2400 0 2400 0 0 330 0 330 -2400 0 -2400 0 0 -330z
m655 285 c19 -18 25 -35 25 -70 l0 -45 -50 0 c-27 0 -50 5 -50 10 0 6 -53 10
-140 10 -87 0 -140 -4 -140 -10 0 -6 50 -10 130 -10 80 0 130 -4 130 -10 0 -5
-4 -10 -10 -10 -6 0 -10 -57 -10 -150 0 -93 4 -150 10 -150 6 0 10 -4 10 -10
0 -6 -69 -10 -186 -10 -147 0 -188 3 -200 14 -11 11 -14 46 -14 150 0 84 -4
136 -10 136 -6 0 -10 -52 -10 -135 0 -131 1 -137 25 -160 24 -25 25 -25 220
-25 123 0 195 4 195 10 0 6 23 10 50 10 l50 0 0 -70 0 -70 -310 0 -310 0 0
310 0 310 285 0 286 0 24 -25z m45 -285 l0 -150 -70 0 -70 0 0 150 0 150 70 0
70 0 0 -150z"/>
<path d="M80 550 c0 -69 1 -70 26 -70 37 0 54 22 54 70 0 48 -17 70 -54 70
-25 0 -26 -1 -26 -70z m60 0 c0 -43 -3 -50 -20 -50 -17 0 -20 7 -20 50 0 43 3
50 20 50 17 0 20 -7 20 -50z"/>
<path d="M193 605 c-15 -17 -17 -125 -3 -125 6 0 10 23 10 50 0 28 5 50 10 50
6 0 10 -22 10 -50 0 -27 5 -50 10 -50 6 0 10 23 10 50 0 28 5 50 10 50 6 0 10
-22 10 -50 0 -27 5 -50 10 -50 17 0 12 109 -6 127 -13 14 -17 14 -26 2 -7 -11
-11 -11 -15 -1 -6 16 -15 15 -30 -3z"/>
<path d="M352 584 c-11 -12 -10 -17 3 -30 9 -9 19 -13 23 -10 3 4 0 12 -8 17
-11 8 -12 12 -2 16 13 5 17 23 5 23 -5 -1 -14 -7 -21 -16z"/>
<path d="M412 584 c-11 -12 -10 -17 2 -30 15 -14 17 -14 32 0 14 14 14 18 0
31 -18 18 -18 18 -34 -1z m28 -14 c0 -5 -4 -10 -10 -10 -5 0 -10 5 -10 10 0 6
5 10 10 10 6 0 10 -4 10 -10z"/>
<path d="M493 585 c-15 -17 -17 -45 -3 -45 6 0 10 9 10 20 0 11 5 20 10 20 6
0 10 -9 10 -20 0 -11 5 -20 10 -20 6 0 10 9 10 20 0 11 5 20 10 20 6 0 10 -9
10 -20 0 -11 5 -20 10 -20 15 0 12 30 -6 47 -13 14 -17 14 -26 2 -7 -11 -11
-11 -15 -1 -6 16 -15 15 -30 -3z"/>
<path d="M300 570 c0 -5 5 -10 10 -10 6 0 10 5 10 10 0 6 -4 10 -10 10 -5 0
-10 -4 -10 -10z"/>
<path d="M80 70 c0 -28 2 -30 40 -30 38 0 40 2 40 30 0 28 -2 30 -40 30 -38 0
-40 -2 -40 -30z"/>
<path d="M560 60 c0 -13 7 -20 20 -20 13 0 20 7 20 20 0 13 -7 20 -20 20 -13
0 -20 -7 -20 -20z"/>
<path d="M580 410 c0 -28 3 -30 36 -30 19 0 42 7 50 15 14 13 14 17 0 30 -8 8
-31 15 -50 15 -33 0 -36 -2 -36 -30z m80 0 c0 -5 -13 -10 -30 -10 -16 0 -30 5
-30 10 0 6 14 10 30 10 17 0 30 -4 30 -10z"/>
<path d="M660 240 c0 -11 5 -20 10 -20 6 0 10 9 10 20 0 11 -4 20 -10 20 -5 0
-10 -9 -10 -20z"/>
</g>
</svg>
