<?xml version="1.0" encoding="UTF-8" standalone="no"?><!-- Generator: Gravit.io --><svg xmlns="http://www.w3.org/2000/svg" xmlns:xlink="http://www.w3.org/1999/xlink" style="isolation:isolate" viewBox="0 0 1280 800" width="1280pt" height="800pt"><defs><clipPath id="_clipPath_5bBmlKOIq1GRf7Fy8n96KvlWAhV61kqv"><rect width="1280" height="800"/></clipPath></defs><g clip-path="url(#_clipPath_5bBmlKOIq1GRf7Fy8n96KvlWAhV61kqv)"><g style="isolation:isolate"><rect x="0" y="0" width="1280" height="800" transform="matrix(1,0,0,1,0,0)" fill="rgb(52,58,64)"/><path d=" M 0 319.462 L 400 212.283 L 400 426.642 L 0 319.462 Z " fill="rgb(232,232,232)"/><path d=" M 0 576.694 L 400 469.514 L 400 683.873 L 0 576.694 Z " fill="rgb(232,232,232)"/><path d=" M 0 833.925 L 400 726.745 L 400 941.105 L 0 833.925 Z " fill="rgb(232,232,232)"/><path d=" M 400 448.078 L 0 340.898 L 0 555.258 L 400 448.078 Z " fill="rgb(232,232,232)"/><path d=" M 400 190.488 L 0 83.308 L 0 297.668 L 400 190.488 Z " fill="rgb(232,232,232)"/><path d=" M 400 705.309 L 0 598.13 L 0 812.489 L 400 705.309 Z " fill="rgb(232,232,232)"/><path d=" M 420 190.488 L 820 83.308 L 820 297.668 L 420 190.488 Z " fill="rgb(232,232,232)"/><path d=" M 420 447.719 L 820 340.539 L 820 554.899 L 420 447.719 Z " fill="rgb(232,232,232)"/><path d=" M 420 704.95 L 820 597.771 L 820 812.13 L 420 704.95 Z " fill="rgb(232,232,232)"/><path d=" M 820 319.103 L 420 211.924 L 420 426.283 L 820 319.103 Z " fill="rgb(232,232,232)"/><path d=" M 820 576.335 L 420 469.155 L 420 683.514 L 820 576.335 Z " fill="rgb(232,232,232)"/><path d=" M 820 833.925 L 420 726.745 L 420 941.105 L 820 833.925 Z " fill="rgb(232,232,232)"/><path d=" M 839 319.462 L 1239 212.283 L 1239 426.642 L 839 319.462 Z " fill="rgb(232,232,232)"/><path d=" M 839 576.694 L 1239 469.514 L 1239 683.873 L 839 576.694 Z " fill="rgb(232,232,232)"/><path d=" M 839 833.925 L 1239 726.745 L 1239 941.105 L 839 833.925 Z " fill="rgb(232,232,232)"/><path d=" M 1239 448.078 L 839 340.898 L 839 555.258 L 1239 448.078 Z " fill="rgb(232,232,232)"/><path d=" M 1239 190.488 L 839 83.308 L 839 297.668 L 1239 190.488 Z " fill="rgb(232,232,232)"/><path d=" M 1239 705.309 L 839 598.13 L 839 812.489 L 1239 705.309 Z " fill="rgb(232,232,232)"/><path d=" M 1259 190.488 L 1659 83.308 L 1659 297.668 L 1259 190.488 Z " fill="rgb(232,232,232)"/><path d=" M 1259 447.719 L 1659 340.539 L 1659 554.899 L 1259 447.719 Z " fill="rgb(232,232,232)"/><path d=" M 1259 704.95 L 1659 597.771 L 1659 812.13 L 1259 704.95 Z " fill="rgb(232,232,232)"/><path d=" M 1659 319.103 L 1259 211.924 L 1259 426.283 L 1659 319.103 Z " fill="rgb(232,232,232)"/><path d=" M 1659 576.335 L 1259 469.155 L 1259 683.514 L 1659 576.335 Z " fill="rgb(232,232,232)"/><path d=" M 1659 833.925 L 1259 726.745 L 1259 941.105 L 1659 833.925 Z " fill="rgb(232,232,232)"/><path d=" M 839 63.18 L 1239 -44 L 1239 170.359 L 839 63.18 Z " fill="rgb(232,232,232)"/><path d=" M 1659 63.18 L 1259 -44 L 1259 170.359 L 1659 63.18 Z " fill="rgb(232,232,232)"/></g><g style="isolation:isolate"><path d=" M 580 144.693 L 580 241.154 L 600 246.513 L 600 139.334 L 580 144.693 Z " fill="rgb(52,58,64)"/><path d=" M 580 401.924 L 580 498.385 L 600 503.744 L 600 396.565 L 580 401.924 Z " fill="rgb(52,58,64)"/><path d=" M 660 380.488 L 820 423.36 L 820 401.924 L 700 369.77 L 660 380.488 Z " fill="rgb(52,58,64)"/><path d=" M 480 225.077 L 480 418.001 L 500 412.642 L 500 230.436 L 480 225.077 Z " fill="rgb(52,58,64)"/><path d=" M 540 659.155 L 420 627.001 L 420 605.565 L 580 648.437 L 540 659.155 Z " fill="rgb(52,58,64)"/><path d=" M 240 503.744 L 240 643.078 L 260 648.437 L 260 498.385 L 240 503.744 Z " fill="rgb(52,58,64)"/><path d=" M 360 439.437 L 0 535.898 L 0 514.462 L 340 423.36 L 380 434.078 L 360 439.437 Z " fill="rgb(52,58,64)"/><path d=" M 160 267.949 L 160 375.129 L 180 380.488 L 180 262.59 L 160 267.949 Z " fill="rgb(52,58,64)"/><path d=" M 160 643.078 L 0 685.95 L 0 707.386 L 220 648.437 L 180 637.719 L 160 643.078 Z " fill="rgb(52,58,64)"/><path d=" M 640 643.078 L 640 771.694 L 660 777.053 L 660 637.719 L 640 643.078 Z " fill="rgb(52,58,64)"/><path d=" M 400 321.539 L 180 262.59 L 220 251.872 L 400 300.103 L 400 321.539 Z " fill="rgb(52,58,64)"/><path d=" M 820 187.564 L 600 246.513 L 640 257.231 L 820 209 L 820 187.564 Z " fill="rgb(52,58,64)"/><path d=" M 830 800 L 832 70 L 1250 188 L 1252 800 L 830 800 Z " fill="rgb(52,58,64)"/></g><g style="isolation:isolate"><path d=" M 0 143.063 L 1013.875 143.063 L 1030 138.375 L 1030 117.063 L 1136 87.063 L 1204 87.063 L 1224.688 105.063 L 1280 105.063 L 1280 77 L 1134 77.063 L 1020 109.063 L 1020 135.063 L 0 135.063 L 0 143.063 Z " fill="rgb(198,100,100)"/><path d=" M 0 104.063 L 1013.875 104.063 L 1030 99.375 L 1030 78.063 L 1136 48.063 L 1204 48.063 L 1224.688 66.063 L 1280 66.063 L 1280 38 L 1134 38.063 L 1020 70.063 L 1020 96.063 L 0 96.063 L 0 104.063 Z " fill="rgb(198,100,100)"/><path d=" M 0 182.063 L 1013.875 182.063 L 1030 177.375 L 1030 156.063 L 1136 126.063 L 1204 126.063 L 1224.688 144.063 L 1280 144.063 L 1280 116 L 1134 116.063 L 1020 148.063 L 1020 174.063 L 0 174.063 L 0 182.063 Z " fill="rgb(198,100,100)"/><path d=" M 0 -0.062 L 1013.875 -0.062 L 1030 4.625 L 1030 25.938 L 1136 55.938 L 1204 55.938 L 1224.688 37.938 L 1280 37.938 L 1280 66 L 1134 65.938 L 1020 33.938 L 1020 7.938 L 0 7.938 L 0 -0.062 Z " fill="rgb(253,119,119)"/><path d=" M 0 39 L 1013.875 39 L 1030 43.688 L 1030 65 L 1136 95 L 1204 95 L 1224.688 77 L 1280 77 L 1280 105.063 L 1134 105 L 1020 73 L 1020 47 L 0 47 L 0 39 Z " fill="rgb(253,119,119)"/><path d=" M 0 78 L 1013.875 78 L 1030 82.688 L 1030 104 L 1136 134 L 1204 134 L 1224.688 116 L 1280 116 L 1280 144.063 L 1134 144 L 1020 112 L 1020 86 L 0 86 L 0 78 Z " fill="rgb(253,119,119)"/></g><g style="isolation:isolate"><rect x="0" y="8" width="1020" height="166" transform="matrix(1,0,0,1,0,0)" fill="rgb(52,58,64)"/></g><g style="isolation:isolate"/></g></svg>