<?xml version="1.0" encoding="UTF-8" standalone="no"?><!-- Generator: Gravit.io --><svg xmlns="http://www.w3.org/2000/svg" xmlns:xlink="http://www.w3.org/1999/xlink" style="isolation:isolate" viewBox="0 0 1280 800" width="1280pt" height="800pt"><defs><clipPath id="_clipPath_ATPHB4OOE2JMOLuEf0annbCuR18ATNPF"><rect width="1280" height="800"/></clipPath></defs><g clip-path="url(#_clipPath_ATPHB4OOE2JMOLuEf0annbCuR18ATNPF)"><g style="isolation:isolate"><rect x="0" y="0" width="1280" height="800" transform="matrix(1,0,0,1,0,0)" fill="rgb(52,58,64)"/><path d=" M 0 311.462 L 400 204.283 L 400 418.642 L 0 311.462 Z " fill="rgb(232,232,232)"/><path d=" M 0 568.694 L 400 461.514 L 400 675.873 L 0 568.694 Z " fill="rgb(232,232,232)"/><path d=" M 0 825.925 L 400 718.745 L 400 933.105 L 0 825.925 Z " fill="rgb(232,232,232)"/><path d=" M 400 440.078 L 0 332.898 L 0 547.258 L 400 440.078 Z " fill="rgb(232,232,232)"/><path d=" M 400 182.488 L 0 75.308 L 0 289.668 L 400 182.488 Z " fill="rgb(232,232,232)"/><path d=" M 400 697.309 L 0 590.13 L 0 804.489 L 400 697.309 Z " fill="rgb(232,232,232)"/><path d=" M 420 182.488 L 820 75.308 L 820 289.668 L 420 182.488 Z " fill="rgb(232,232,232)"/><path d=" M 420 439.719 L 820 332.539 L 820 546.899 L 420 439.719 Z " fill="rgb(232,232,232)"/><path d=" M 420 696.95 L 820 589.771 L 820 804.13 L 420 696.95 Z " fill="rgb(232,232,232)"/><path d=" M 820 311.103 L 420 203.924 L 420 418.283 L 820 311.103 Z " fill="rgb(232,232,232)"/><path d=" M 820 568.335 L 420 461.155 L 420 675.514 L 820 568.335 Z " fill="rgb(232,232,232)"/><path d=" M 820 825.925 L 420 718.745 L 420 933.105 L 820 825.925 Z " fill="rgb(232,232,232)"/><path d=" M 839 319.462 L 1239 212.283 L 1239 426.642 L 839 319.462 Z " fill="rgb(232,232,232)"/><path d=" M 839 576.694 L 1239 469.514 L 1239 683.873 L 839 576.694 Z " fill="rgb(232,232,232)"/><path d=" M 839 833.925 L 1239 726.745 L 1239 941.105 L 839 833.925 Z " fill="rgb(232,232,232)"/><path d=" M 1239 448.078 L 839 340.898 L 839 555.258 L 1239 448.078 Z " fill="rgb(232,232,232)"/><path d=" M 1239 190.488 L 839 83.308 L 839 297.668 L 1239 190.488 Z " fill="rgb(232,232,232)"/><path d=" M 1239 705.309 L 839 598.13 L 839 812.489 L 1239 705.309 Z " fill="rgb(232,232,232)"/><path d=" M 1259 190.488 L 1659 83.308 L 1659 297.668 L 1259 190.488 Z " fill="rgb(232,232,232)"/><path d=" M 1259 447.719 L 1659 340.539 L 1659 554.899 L 1259 447.719 Z " fill="rgb(232,232,232)"/><path d=" M 1259 704.95 L 1659 597.771 L 1659 812.13 L 1259 704.95 Z " fill="rgb(232,232,232)"/><path d=" M 1659 319.103 L 1259 211.924 L 1259 426.283 L 1659 319.103 Z " fill="rgb(232,232,232)"/><path d=" M 1659 576.335 L 1259 469.155 L 1259 683.514 L 1659 576.335 Z " fill="rgb(232,232,232)"/><path d=" M 1659 833.925 L 1259 726.745 L 1259 941.105 L 1659 833.925 Z " fill="rgb(232,232,232)"/><path d=" M 839 63.18 L 1009 0 L 1239 -44 L 1239 170.359 L 839 63.18 Z " fill="rgb(232,232,232)"/><path d=" M 1659 63.18 L 1259 -44 L 1259 170.359 L 1659 63.18 Z " fill="rgb(232,232,232)"/></g><g style="isolation:isolate"><path d=" M 580 136.693 L 580 233.154 L 600 238.513 L 600 131.334 L 580 136.693 Z " fill="rgb(52,58,64)"/><path d=" M 580 393.924 L 580 490.385 L 600 495.744 L 600 388.565 L 580 393.924 Z " fill="rgb(52,58,64)"/><path d=" M 660 372.488 L 820 415.36 L 820 393.924 L 700 361.77 L 660 372.488 Z " fill="rgb(52,58,64)"/><path d=" M 480 217.077 L 480 410.001 L 500 404.642 L 500 222.436 L 480 217.077 Z " fill="rgb(52,58,64)"/><path d=" M 540 651.155 L 420 619.001 L 420 597.565 L 580 640.437 L 540 651.155 Z " fill="rgb(52,58,64)"/><path d=" M 240 495.744 L 240 635.078 L 260 640.437 L 260 490.385 L 240 495.744 Z " fill="rgb(52,58,64)"/><path d=" M 360 431.437 L 0 527.898 L 0 506.462 L 340 415.36 L 380 426.078 L 360 431.437 Z " fill="rgb(52,58,64)"/><path d=" M 160 259.949 L 160 367.129 L 180 372.488 L 180 254.59 L 160 259.949 Z " fill="rgb(52,58,64)"/><path d=" M 160 635.078 L 0 677.95 L 0 699.386 L 220 640.437 L 180 629.719 L 160 635.078 Z " fill="rgb(52,58,64)"/><path d=" M 640 635.078 L 640 763.694 L 660 769.053 L 660 629.719 L 640 635.078 Z " fill="rgb(52,58,64)"/><path d=" M 400 313.539 L 180 254.59 L 220 243.872 L 400 292.103 L 400 313.539 Z " fill="rgb(52,58,64)"/><path d=" M 820 179.564 L 600 238.513 L 640 249.231 L 820 201 L 820 179.564 Z " fill="rgb(52,58,64)"/><path d=" M 830 800 L 832 70 L 1250 188 L 1252 800 L 830 800 Z " fill="rgb(52,58,64)"/></g><g style="isolation:isolate"><path d=" M 0 143.063 L 1016 150 L 1030 146 L 1030 117.063 L 1136 87.063 L 1204 87.063 L 1224.688 105.063 L 1280 105.063 L 1280 77 L 1134 77.063 L 1020 109.063 L 1020 135.063 L 0 135.063 L 0 143.063 Z " fill="rgb(198,100,100)"/><path d=" M 0 104.063 L 1013.875 104.063 L 1030 99.375 L 1030 78.063 L 1136 48.063 L 1204 48.063 L 1224.688 66.063 L 1280 66.063 L 1280 38 L 1134 38.063 L 1030 67.559 L 1030 31 L 1020 30 L 1020 96.063 L 0 96.063 L 0 104.063 Z " fill="rgb(198,100,100)"/><path d=" M 0 182.063 L 1013.875 182.063 L 1030 177.375 L 1030 156.063 L 1136 126.063 L 1204 126.063 L 1224.688 144.063 L 1280 144.063 L 1280 116 L 1134 116.063 L 1020 148.063 L 1020 174.063 L 0 174.063 L 0 182.063 Z " fill="rgb(198,100,100)"/><path d=" M 0 182.063 L 0 802 L 9 802 L 1280 804 L 1280 782 L 1280 184 L 1259 190 L 1259 782 L 9 782 L 9 182.063 L 1013.875 182.063 L 1030 177.375 L 1030 122 L 1020 119 L 1020 174.063 L 0 174.063 L 0 182.063 Z " fill="rgb(253,119,119)"/><path d=" M 0 39 L 1013.875 39 L 1030 43.688 L 1030 65 L 1136 95 L 1204 95 L 1224.688 77 L 1280 77 L 1280 105.063 L 1134 105 L 1020 73 L 1020 47 L 0 47 L 0 39 Z " fill="rgb(253,119,119)"/><path d=" M 0 78 L 1013.875 78 L 1030 82.688 L 1030 104 L 1136 134 L 1204 134 L 1224.688 116 L 1280 116 L 1280 144.063 L 1134 144 L 1020 112 L 1020 86 L 0 86 L 0 78 Z " fill="rgb(253,119,119)"/><rect x="0" y="8" width="1020" height="166" transform="matrix(1,0,0,1,0,0)" fill="rgb(52,58,64)"/><path d=" M 0 -0.062 L 1013.875 -0.062 L 1030 4.625 L 1030 25.938 L 1136 55.938 L 1204 55.938 L 1224.688 37.938 L 1280 37.938 L 1280 66 L 1134 65.938 L 1020 33.938 L 1020 7.938 L 7.219 7.938 L 0 15 L 0 -0.062 Z " fill="rgb(253,119,119)"/></g><g style="isolation:isolate"/><g style="isolation:isolate"/></g></svg>