<?xml version="1.0" encoding="UTF-8" standalone="no"?><!-- Generator: Gravit.io --><svg xmlns="http://www.w3.org/2000/svg" xmlns:xlink="http://www.w3.org/1999/xlink" style="isolation:isolate" viewBox="0 0 1280 800" width="1280pt" height="800pt"><defs><clipPath id="_clipPath_wRPlHtScXDaAbaW890Tmt54xO8B1xamD"><rect width="1280" height="800"/></clipPath></defs><g clip-path="url(#_clipPath_wRPlHtScXDaAbaW890Tmt54xO8B1xamD)"><rect x="-41" y="-27" width="1396" height="885" transform="matrix(1,0,0,1,0,0)" fill="rgb(52,58,64)"/><path d=" M 77.4 561.63 L 62.05 561.63 L 62.05 510.43 L 77.4 510.43 L 77.4 516.13 L 77.4 516.13 Q 81.2 512.33 84.95 510.58 L 84.95 510.58 L 84.95 510.58 Q 88.7 508.83 93.05 508.83 L 93.05 508.83 L 93.05 508.83 Q 98.95 508.83 103.7 511.48 L 103.7 511.48 L 103.7 511.48 Q 108.45 514.13 110.5 518.58 L 110.5 518.58 L 110.5 518.58 Q 114.25 513.73 118.55 511.28 L 118.55 511.28 L 118.55 511.28 Q 122.85 508.83 128.4 508.83 L 128.4 508.83 L 128.4 508.83 Q 133.95 508.83 138.25 511.13 L 138.25 511.13 L 138.25 511.13 Q 142.55 513.43 145.025 517.655 L 145.025 517.655 L 145.025 517.655 Q 147.5 521.88 147.5 527.63 L 147.5 527.63 L 147.5 561.63 L 132.15 561.63 L 132.15 531.83 L 132.15 531.83 Q 132.15 526.83 129.55 523.955 L 129.55 523.955 L 129.55 523.955 Q 126.95 521.08 122.6 521.08 L 122.6 521.08 L 122.6 521.08 Q 119.6 521.08 117.325 522.33 L 117.325 522.33 L 117.325 522.33 Q 115.05 523.58 113.75 525.68 L 113.75 525.68 L 113.75 525.68 Q 112.45 527.78 112.45 530.33 L 112.45 530.33 L 112.45 561.63 L 97.1 561.63 L 97.1 531.53 L 97.1 531.53 Q 97.1 526.78 94.575 523.93 L 94.575 523.93 L 94.575 523.93 Q 92.05 521.08 87.6 521.08 L 87.6 521.08 L 87.6 521.08 Q 84.65 521.08 82.325 522.33 L 82.325 522.33 L 82.325 522.33 Q 80 523.58 78.7 525.73 L 78.7 525.73 L 78.7 525.73 Q 77.4 527.88 77.4 530.48 L 77.4 530.48 L 77.4 561.63 L 77.4 561.63 Z  M 186.1 563.23 L 186.1 563.23 L 186.1 563.23 Q 179.05 563.23 173.275 559.705 L 173.275 559.705 L 173.275 559.705 Q 167.5 556.18 164.125 550.005 L 164.125 550.005 L 164.125 550.005 Q 160.75 543.83 160.75 535.93 L 160.75 535.93 L 160.75 535.93 Q 160.75 528.23 164 522.105 L 164 522.105 L 164 522.105 Q 167.25 515.98 172.975 512.405 L 172.975 512.405 L 172.975 512.405 Q 178.7 508.83 186.1 508.83 L 186.1 508.83 L 186.1 508.83 Q 191.55 508.83 196.275 510.905 L 196.275 510.905 L 196.275 510.905 Q 201 512.98 204 516.68 L 204 516.68 L 204 510.43 L 219.35 510.43 L 219.35 561.63 L 204 561.63 L 204 554.88 L 204 554.88 Q 200.5 558.93 195.95 561.08 L 195.95 561.08 L 195.95 561.08 Q 191.4 563.23 186.1 563.23 Z  M 190.65 550.18 L 190.65 550.18 L 190.65 550.18 Q 194.65 550.18 197.75 548.355 L 197.75 548.355 L 197.75 548.355 Q 200.85 546.53 202.6 543.33 L 202.6 543.33 L 202.6 543.33 Q 204.35 540.13 204.35 536.03 L 204.35 536.03 L 204.35 536.03 Q 204.35 531.88 202.575 528.705 L 202.575 528.705 L 202.575 528.705 Q 200.8 525.53 197.725 523.705 L 197.725 523.705 L 197.725 523.705 Q 194.65 521.88 190.65 521.88 L 190.65 521.88 L 190.65 521.88 Q 186.7 521.88 183.6 523.705 L 183.6 523.705 L 183.6 523.705 Q 180.5 525.53 178.7 528.73 L 178.7 528.73 L 178.7 528.73 Q 176.9 531.93 176.9 536.03 L 176.9 536.03 L 176.9 536.03 Q 176.9 540.13 178.675 543.33 L 178.675 543.33 L 178.675 543.33 Q 180.45 546.53 183.55 548.355 L 183.55 548.355 L 183.55 548.355 Q 186.65 550.18 190.65 550.18 Z  M 252.75 561.63 L 237.4 561.63 L 237.4 510.43 L 252.75 510.43 L 252.75 517.78 L 252.75 517.78 Q 255.6 513.48 259.725 511.155 L 259.725 511.155 L 259.725 511.155 Q 263.85 508.83 268.6 508.83 L 268.6 508.83 L 268.6 508.83 Q 271.3 508.83 274.2 509.63 L 274.2 509.63 L 274.2 509.63 Q 277.1 510.43 279.05 511.68 L 279.05 511.68 L 272.65 524.63 L 272.65 524.63 Q 270.95 523.48 268.675 522.805 L 268.675 522.805 L 268.675 522.805 Q 266.4 522.13 264.45 522.13 L 264.45 522.13 L 264.45 522.13 Q 261.45 522.13 258.75 523.68 L 258.75 523.68 L 258.75 523.68 Q 256.05 525.23 254.4 527.705 L 254.4 527.705 L 254.4 527.705 Q 252.75 530.18 252.75 533.03 L 252.75 533.03 L 252.75 561.63 L 252.75 561.63 Z  M 315 561.63 L 304.75 561.63 L 277.85 510.43 L 295.95 510.43 L 309.9 541.33 L 323.85 510.43 L 341.95 510.43 L 315 561.63 L 315 561.63 Z  M 374.6 563.23 L 374.6 563.23 L 374.6 563.23 Q 366.3 563.23 359.725 559.655 L 359.725 559.655 L 359.725 559.655 Q 353.15 556.08 349.3 549.93 L 349.3 549.93 L 349.3 549.93 Q 345.45 543.78 345.45 536.03 L 345.45 536.03 L 345.45 536.03 Q 345.45 530.33 347.625 525.38 L 347.625 525.38 L 347.625 525.38 Q 349.8 520.43 353.7 516.705 L 353.7 516.705 L 353.7 516.705 Q 357.6 512.98 362.75 510.905 L 362.75 510.905 L 362.75 510.905 Q 367.9 508.83 373.9 508.83 L 373.9 508.83 L 373.9 508.83 Q 381.9 508.83 387.925 512.155 L 387.925 512.155 L 387.925 512.155 Q 393.95 515.48 397.325 521.38 L 397.325 521.38 L 397.325 521.38 Q 400.7 527.28 400.7 535.13 L 400.7 535.13 L 400.7 535.13 Q 400.7 535.78 400.675 536.255 L 400.675 536.255 L 400.675 536.255 Q 400.65 536.73 400.5 538.03 L 400.5 538.03 L 361.25 538.03 L 361.25 538.03 Q 361.25 541.93 363.025 544.83 L 363.025 544.83 L 363.025 544.83 Q 364.8 547.73 368 549.355 L 368 549.355 L 368 549.355 Q 371.2 550.98 375.45 550.98 L 375.45 550.98 L 375.45 550.98 Q 379.45 550.98 382.525 549.43 L 382.525 549.43 L 382.525 549.43 Q 385.6 547.88 388.45 544.48 L 388.45 544.48 L 399.5 550.03 L 399.5 550.03 Q 395.9 556.23 389.3 559.73 L 389.3 559.73 L 389.3 559.73 Q 382.7 563.23 374.6 563.23 Z  M 361.8 529.53 L 361.8 529.53 L 385.6 529.53 L 385.6 529.53 Q 385.1 526.58 383.475 524.43 L 383.475 524.43 L 383.475 524.43 Q 381.85 522.28 379.35 521.13 L 379.35 521.13 L 379.35 521.13 Q 376.85 519.98 373.7 519.98 L 373.7 519.98 L 373.7 519.98 Q 370.35 519.98 367.8 521.13 L 367.8 521.13 L 367.8 521.13 Q 365.25 522.28 363.7 524.43 L 363.7 524.43 L 363.7 524.43 Q 362.15 526.58 361.8 529.53 Z  M 429.75 561.63 L 414.4 561.63 L 414.4 475.63 L 429.75 475.63 L 429.75 561.63 L 429.75 561.63 Z  M 473.3 563.23 L 473.3 563.23 L 473.3 563.23 Q 464.85 563.23 458.05 559.755 L 458.05 559.755 L 458.05 559.755 Q 451.25 556.28 447.25 550.155 L 447.25 550.155 L 447.25 550.155 Q 443.25 544.03 443.25 536.03 L 443.25 536.03 L 443.25 536.03 Q 443.25 528.03 447.225 521.905 L 447.225 521.905 L 447.225 521.905 Q 451.2 515.78 458.025 512.305 L 458.025 512.305 L 458.025 512.305 Q 464.85 508.83 473.3 508.83 L 473.3 508.83 L 473.3 508.83 Q 481.8 508.83 488.6 512.305 L 488.6 512.305 L 488.6 512.305 Q 495.4 515.78 499.375 521.905 L 499.375 521.905 L 499.375 521.905 Q 503.35 528.03 503.35 536.03 L 503.35 536.03 L 503.35 536.03 Q 503.35 544.03 499.375 550.155 L 499.375 550.155 L 499.375 550.155 Q 495.4 556.28 488.6 559.755 L 488.6 559.755 L 488.6 559.755 Q 481.8 563.23 473.3 563.23 Z  M 473.35 550.13 L 473.35 550.13 L 473.35 550.13 Q 477.25 550.13 480.45 548.33 L 480.45 548.33 L 480.45 548.33 Q 483.65 546.53 485.5 543.355 L 485.5 543.355 L 485.5 543.355 Q 487.35 540.18 487.35 536.03 L 487.35 536.03 L 487.35 536.03 Q 487.35 531.88 485.5 528.705 L 485.5 528.705 L 485.5 528.705 Q 483.65 525.53 480.45 523.73 L 480.45 523.73 L 480.45 523.73 Q 477.25 521.93 473.35 521.93 L 473.35 521.93 L 473.35 521.93 Q 469.4 521.93 466.225 523.73 L 466.225 523.73 L 466.225 523.73 Q 463.05 525.53 461.2 528.705 L 461.2 528.705 L 461.2 528.705 Q 459.35 531.88 459.35 536.03 L 459.35 536.03 L 459.35 536.03 Q 459.35 540.18 461.2 543.355 L 461.2 543.355 L 461.2 543.355 Q 463.05 546.53 466.225 548.33 L 466.225 548.33 L 466.225 548.33 Q 469.4 550.13 473.35 550.13 Z  M 542.05 563.23 L 542.05 563.23 L 542.05 563.23 Q 528.05 563.23 521.85 557.68 L 521.85 557.68 L 521.85 557.68 Q 515.65 552.13 515.65 539.53 L 515.65 539.53 L 515.65 510.43 L 531 510.43 L 531 535.93 L 531 535.93 Q 531 544.03 533.525 547.38 L 533.525 547.38 L 533.525 547.38 Q 536.05 550.73 542.05 550.73 L 542.05 550.73 L 542.05 550.73 Q 548.15 550.73 550.625 547.38 L 550.625 547.38 L 550.625 547.38 Q 553.1 544.03 553.1 535.93 L 553.1 535.93 L 553.1 510.43 L 568.45 510.43 L 568.45 539.53 L 568.45 539.53 Q 568.45 552.13 562.275 557.68 L 562.275 557.68 L 562.275 557.68 Q 556.1 563.23 542.05 563.23 Z  M 599.4 563.23 L 599.4 563.23 L 599.4 563.23 Q 592.9 563.23 587.775 561.18 L 587.775 561.18 L 587.775 561.18 Q 582.65 559.13 579.25 555.18 L 579.25 555.18 L 585.7 544.88 L 585.7 544.88 Q 588.9 548.28 592.4 550.08 L 592.4 550.08 L 592.4 550.08 Q 595.9 551.88 599.4 551.88 L 599.4 551.88 L 599.4 551.88 Q 601.35 551.88 602.775 551.23 L 602.775 551.23 L 602.775 551.23 Q 604.2 550.58 605.025 549.355 L 605.025 549.355 L 605.025 549.355 Q 605.85 548.13 605.85 546.38 L 605.85 546.38 L 605.85 546.38 Q 605.85 544.38 604.725 543.23 L 604.725 543.23 L 604.725 543.23 Q 603.6 542.08 601.3 541.105 L 601.3 541.105 L 601.3 541.105 Q 599 540.13 595.35 538.63 L 595.35 538.63 L 595.35 538.63 Q 592.25 537.33 589.4 535.68 L 589.4 535.68 L 589.4 535.68 Q 586.55 534.03 584.775 531.48 L 584.775 531.48 L 584.775 531.48 Q 583 528.93 583 525.03 L 583 525.03 L 583 525.03 Q 583 520.28 585.65 516.655 L 585.65 516.655 L 585.65 516.655 Q 588.3 513.03 592.975 510.98 L 592.975 510.98 L 592.975 510.98 Q 597.65 508.93 603.75 508.93 L 603.75 508.93 L 603.75 508.93 Q 607.55 508.93 611.725 510.08 L 611.725 510.08 L 611.725 510.08 Q 615.9 511.23 620.65 513.58 L 620.65 513.58 L 615.4 523.43 L 615.4 523.43 Q 608.95 519.28 603.85 519.28 L 603.85 519.28 L 603.85 519.28 Q 601 519.28 599.3 520.53 L 599.3 520.53 L 599.3 520.53 Q 597.6 521.78 597.6 523.68 L 597.6 523.68 L 597.6 523.68 Q 597.6 525.48 599.375 526.805 L 599.375 526.805 L 599.375 526.805 Q 601.15 528.13 603.725 529.155 L 603.725 529.155 L 603.725 529.155 Q 606.3 530.18 608.65 531.03 L 608.65 531.03 L 608.65 531.03 Q 612.5 532.43 615.475 534.13 L 615.475 534.13 L 615.475 534.13 Q 618.45 535.83 620.15 538.555 L 620.15 538.555 L 620.15 538.555 Q 621.85 541.28 621.85 545.83 L 621.85 545.83 L 621.85 545.83 Q 621.85 551.38 619.175 555.255 L 619.175 555.255 L 619.175 555.255 Q 616.5 559.13 611.475 561.18 L 611.475 561.18 L 611.475 561.18 Q 606.45 563.23 599.4 563.23 Z  M 651.45 561.63 L 636.1 561.63 L 636.1 475.63 L 651.45 475.63 L 651.45 561.63 L 651.45 561.63 Z  M 684.35 587.63 L 666.8 587.63 L 683.35 555.23 L 659 510.43 L 676.6 510.43 L 692.3 540.43 L 705.9 510.43 L 723.5 510.43 L 684.35 587.63 L 684.35 587.63 Z  M 738.75 563.23 L 738.75 563.23 L 738.75 563.23 Q 735.95 563.23 733.675 561.88 L 733.675 561.88 L 733.675 561.88 Q 731.4 560.53 730.075 558.255 L 730.075 558.255 L 730.075 558.255 Q 728.75 555.98 728.75 553.23 L 728.75 553.23 L 728.75 553.23 Q 728.75 550.43 730.075 548.18 L 730.075 548.18 L 730.075 548.18 Q 731.4 545.93 733.7 544.58 L 733.7 544.58 L 733.7 544.58 Q 736 543.23 738.75 543.23 L 738.75 543.23 L 738.75 543.23 Q 741.55 543.23 743.8 544.58 L 743.8 544.58 L 743.8 544.58 Q 746.05 545.93 747.4 548.18 L 747.4 548.18 L 747.4 548.18 Q 748.75 550.43 748.75 553.23 L 748.75 553.23 L 748.75 553.23 Q 748.75 555.98 747.4 558.255 L 747.4 558.255 L 747.4 558.255 Q 746.05 560.53 743.8 561.88 L 743.8 561.88 L 743.8 561.88 Q 741.55 563.23 738.75 563.23 Z " fill="rgb(253,119,119)"/><path d=" M 289.15 430.435 L 289.15 430.435 L 289.15 430.435 Q 282.1 430.435 276.325 426.91 L 276.325 426.91 L 276.325 426.91 Q 270.55 423.385 267.175 417.21 L 267.175 417.21 L 267.175 417.21 Q 263.8 411.035 263.8 403.135 L 263.8 403.135 L 263.8 403.135 Q 263.8 395.435 267.05 389.31 L 267.05 389.31 L 267.05 389.31 Q 270.3 383.185 276.025 379.61 L 276.025 379.61 L 276.025 379.61 Q 281.75 376.035 289.15 376.035 L 289.15 376.035 L 289.15 376.035 Q 294.6 376.035 299.325 378.11 L 299.325 378.11 L 299.325 378.11 Q 304.05 380.185 307.05 383.885 L 307.05 383.885 L 307.05 377.635 L 322.4 377.635 L 322.4 428.835 L 307.05 428.835 L 307.05 422.085 L 307.05 422.085 Q 303.55 426.135 299 428.285 L 299 428.285 L 299 428.285 Q 294.45 430.435 289.15 430.435 Z  M 293.7 417.385 L 293.7 417.385 L 293.7 417.385 Q 297.7 417.385 300.8 415.56 L 300.8 415.56 L 300.8 415.56 Q 303.9 413.735 305.65 410.535 L 305.65 410.535 L 305.65 410.535 Q 307.4 407.335 307.4 403.235 L 307.4 403.235 L 307.4 403.235 Q 307.4 399.085 305.625 395.91 L 305.625 395.91 L 305.625 395.91 Q 303.85 392.735 300.775 390.91 L 300.775 390.91 L 300.775 390.91 Q 297.7 389.085 293.7 389.085 L 293.7 389.085 L 293.7 389.085 Q 289.75 389.085 286.65 390.91 L 286.65 390.91 L 286.65 390.91 Q 283.55 392.735 281.75 395.935 L 281.75 395.935 L 281.75 395.935 Q 279.95 399.135 279.95 403.235 L 279.95 403.235 L 279.95 403.235 Q 279.95 407.335 281.725 410.535 L 281.725 410.535 L 281.725 410.535 Q 283.5 413.735 286.6 415.56 L 286.6 415.56 L 286.6 415.56 Q 289.7 417.385 293.7 417.385 Z  M 355.8 428.835 L 340.45 428.835 L 340.45 342.835 L 355.8 342.835 L 355.8 428.835 L 355.8 428.835 Z  M 399.35 430.435 L 399.35 430.435 L 399.35 430.435 Q 390.9 430.435 384.1 426.96 L 384.1 426.96 L 384.1 426.96 Q 377.3 423.485 373.3 417.36 L 373.3 417.36 L 373.3 417.36 Q 369.3 411.235 369.3 403.235 L 369.3 403.235 L 369.3 403.235 Q 369.3 395.235 373.275 389.11 L 373.275 389.11 L 373.275 389.11 Q 377.25 382.985 384.075 379.51 L 384.075 379.51 L 384.075 379.51 Q 390.9 376.035 399.35 376.035 L 399.35 376.035 L 399.35 376.035 Q 407.85 376.035 414.65 379.51 L 414.65 379.51 L 414.65 379.51 Q 421.45 382.985 425.425 389.11 L 425.425 389.11 L 425.425 389.11 Q 429.4 395.235 429.4 403.235 L 429.4 403.235 L 429.4 403.235 Q 429.4 411.235 425.425 417.36 L 425.425 417.36 L 425.425 417.36 Q 421.45 423.485 414.65 426.96 L 414.65 426.96 L 414.65 426.96 Q 407.85 430.435 399.35 430.435 Z  M 399.4 417.335 L 399.4 417.335 L 399.4 417.335 Q 403.3 417.335 406.5 415.535 L 406.5 415.535 L 406.5 415.535 Q 409.7 413.735 411.55 410.56 L 411.55 410.56 L 411.55 410.56 Q 413.4 407.385 413.4 403.235 L 413.4 403.235 L 413.4 403.235 Q 413.4 399.085 411.55 395.91 L 411.55 395.91 L 411.55 395.91 Q 409.7 392.735 406.5 390.935 L 406.5 390.935 L 406.5 390.935 Q 403.3 389.135 399.4 389.135 L 399.4 389.135 L 399.4 389.135 Q 395.45 389.135 392.275 390.935 L 392.275 390.935 L 392.275 390.935 Q 389.1 392.735 387.25 395.91 L 387.25 395.91 L 387.25 395.91 Q 385.4 399.085 385.4 403.235 L 385.4 403.235 L 385.4 403.235 Q 385.4 407.385 387.25 410.56 L 387.25 410.56 L 387.25 410.56 Q 389.1 413.735 392.275 415.535 L 392.275 415.535 L 392.275 415.535 Q 395.45 417.335 399.4 417.335 Z  M 458.15 428.835 L 442.8 428.835 L 442.8 377.635 L 458.15 377.635 L 458.15 383.335 L 458.15 383.335 Q 461.1 380.035 465.525 378.035 L 465.525 378.035 L 465.525 378.035 Q 469.95 376.035 475.3 376.035 L 475.3 376.035 L 475.3 376.035 Q 481.2 376.035 485.675 378.61 L 485.675 378.61 L 485.675 378.61 Q 490.15 381.185 492.7 385.76 L 492.7 385.76 L 492.7 385.76 Q 495.25 390.335 495.25 396.435 L 495.25 396.435 L 495.25 428.835 L 479.9 428.835 L 479.9 399.685 L 479.9 399.685 Q 479.9 394.185 477.025 391.11 L 477.025 391.11 L 477.025 391.11 Q 474.15 388.035 469.15 388.035 L 469.15 388.035 L 469.15 388.035 Q 465.75 388.035 463.275 389.41 L 463.275 389.41 L 463.275 389.41 Q 460.8 390.785 459.475 393.16 L 459.475 393.16 L 459.475 393.16 Q 458.15 395.535 458.15 398.535 L 458.15 398.535 L 458.15 428.835 L 458.15 428.835 Z  M 536.95 456.335 L 536.95 456.335 L 536.95 456.335 Q 526.6 456.335 519.55 452.56 L 519.55 452.56 L 519.55 452.56 Q 512.5 448.785 509.3 441.435 L 509.3 441.435 L 521.8 435.335 L 521.8 435.335 Q 523.9 438.885 528 440.985 L 528 440.985 L 528 440.985 Q 532.1 443.085 536.9 443.085 L 536.9 443.085 L 536.9 443.085 Q 541.25 443.085 544.55 441.36 L 544.55 441.36 L 544.55 441.36 Q 547.85 439.635 549.7 436.51 L 549.7 436.51 L 549.7 436.51 Q 551.55 433.385 551.55 429.285 L 551.55 429.285 L 551.55 422.085 L 551.55 422.085 Q 548.15 426.035 543.5 428.235 L 543.5 428.235 L 543.5 428.235 Q 538.85 430.435 533.5 430.435 L 533.5 430.435 L 533.5 430.435 Q 526.55 430.435 520.825 426.96 L 520.825 426.96 L 520.825 426.96 Q 515.1 423.485 511.7 417.335 L 511.7 417.335 L 511.7 417.335 Q 508.3 411.185 508.3 403.235 L 508.3 403.235 L 508.3 403.235 Q 508.3 395.435 511.625 389.31 L 511.625 389.31 L 511.625 389.31 Q 514.95 383.185 520.725 379.61 L 520.725 379.61 L 520.725 379.61 Q 526.5 376.035 533.9 376.035 L 533.9 376.035 L 533.9 376.035 Q 539.3 376.035 543.9 378.11 L 543.9 378.11 L 543.9 378.11 Q 548.5 380.185 551.55 383.885 L 551.55 383.885 L 551.55 377.635 L 566.9 377.635 L 566.9 430.235 L 566.9 430.235 Q 566.9 437.785 563.625 443.685 L 563.625 443.685 L 563.625 443.685 Q 560.35 449.585 553.7 452.96 L 553.7 452.96 L 553.7 452.96 Q 547.05 456.335 536.95 456.335 Z  M 538.1 417.385 L 538.1 417.385 L 538.1 417.385 Q 542.15 417.385 545.275 415.56 L 545.275 415.56 L 545.275 415.56 Q 548.4 413.735 550.15 410.56 L 550.15 410.56 L 550.15 410.56 Q 551.9 407.385 551.9 403.335 L 551.9 403.335 L 551.9 403.335 Q 551.9 399.185 550.125 395.985 L 550.125 395.985 L 550.125 395.985 Q 548.35 392.785 545.25 390.935 L 545.25 390.935 L 545.25 390.935 Q 542.15 389.085 538.2 389.085 L 538.2 389.085 L 538.2 389.085 Q 534.25 389.085 531.15 390.935 L 531.15 390.935 L 531.15 390.935 Q 528.05 392.785 526.25 396.01 L 526.25 396.01 L 526.25 396.01 Q 524.45 399.235 524.45 403.335 L 524.45 403.335 L 524.45 403.335 Q 524.45 407.385 526.2 410.56 L 526.2 410.56 L 526.2 410.56 Q 527.95 413.735 531.05 415.56 L 531.05 415.56 L 531.05 415.56 Q 534.15 417.385 538.1 417.385 Z  M 86.7 456.335 L 86.7 456.335 L 86.7 456.335 Q 76.35 456.335 69.3 452.56 L 69.3 452.56 L 69.3 452.56 Q 62.25 448.785 59.05 441.435 L 59.05 441.435 L 71.55 435.335 L 71.55 435.335 Q 73.65 438.885 77.75 440.985 L 77.75 440.985 L 77.75 440.985 Q 81.85 443.085 86.65 443.085 L 86.65 443.085 L 86.65 443.085 Q 91 443.085 94.3 441.36 L 94.3 441.36 L 94.3 441.36 Q 97.6 439.635 99.45 436.51 L 99.45 436.51 L 99.45 436.51 Q 101.3 433.385 101.3 429.285 L 101.3 429.285 L 101.3 422.085 L 101.3 422.085 Q 97.9 426.035 93.25 428.235 L 93.25 428.235 L 93.25 428.235 Q 88.6 430.435 83.25 430.435 L 83.25 430.435 L 83.25 430.435 Q 76.3 430.435 70.575 426.96 L 70.575 426.96 L 70.575 426.96 Q 64.85 423.485 61.45 417.335 L 61.45 417.335 L 61.45 417.335 Q 58.05 411.185 58.05 403.235 L 58.05 403.235 L 58.05 403.235 Q 58.05 395.435 61.375 389.31 L 61.375 389.31 L 61.375 389.31 Q 64.7 383.185 70.475 379.61 L 70.475 379.61 L 70.475 379.61 Q 76.25 376.035 83.65 376.035 L 83.65 376.035 L 83.65 376.035 Q 89.05 376.035 93.65 378.11 L 93.65 378.11 L 93.65 378.11 Q 98.25 380.185 101.3 383.885 L 101.3 383.885 L 101.3 377.635 L 116.65 377.635 L 116.65 430.235 L 116.65 430.235 Q 116.65 437.785 113.375 443.685 L 113.375 443.685 L 113.375 443.685 Q 110.1 449.585 103.45 452.96 L 103.45 452.96 L 103.45 452.96 Q 96.8 456.335 86.7 456.335 Z  M 87.85 417.385 L 87.85 417.385 L 87.85 417.385 Q 91.9 417.385 95.025 415.56 L 95.025 415.56 L 95.025 415.56 Q 98.15 413.735 99.9 410.56 L 99.9 410.56 L 99.9 410.56 Q 101.65 407.385 101.65 403.335 L 101.65 403.335 L 101.65 403.335 Q 101.65 399.185 99.875 395.985 L 99.875 395.985 L 99.875 395.985 Q 98.1 392.785 95 390.935 L 95 390.935 L 95 390.935 Q 91.9 389.085 87.95 389.085 L 87.95 389.085 L 87.95 389.085 Q 84 389.085 80.9 390.935 L 80.9 390.935 L 80.9 390.935 Q 77.8 392.785 76 396.01 L 76 396.01 L 76 396.01 Q 74.2 399.235 74.2 403.335 L 74.2 403.335 L 74.2 403.335 Q 74.2 407.385 75.95 410.56 L 75.95 410.56 L 75.95 410.56 Q 77.7 413.735 80.8 415.56 L 80.8 415.56 L 80.8 415.56 Q 83.9 417.385 87.85 417.385 Z  M 158.8 430.435 L 158.8 430.435 L 158.8 430.435 Q 150.5 430.435 143.925 426.86 L 143.925 426.86 L 143.925 426.86 Q 137.35 423.285 133.5 417.135 L 133.5 417.135 L 133.5 417.135 Q 129.65 410.985 129.65 403.235 L 129.65 403.235 L 129.65 403.235 Q 129.65 397.535 131.825 392.585 L 131.825 392.585 L 131.825 392.585 Q 134 387.635 137.9 383.91 L 137.9 383.91 L 137.9 383.91 Q 141.8 380.185 146.95 378.11 L 146.95 378.11 L 146.95 378.11 Q 152.1 376.035 158.1 376.035 L 158.1 376.035 L 158.1 376.035 Q 166.1 376.035 172.125 379.36 L 172.125 379.36 L 172.125 379.36 Q 178.15 382.685 181.525 388.585 L 181.525 388.585 L 181.525 388.585 Q 184.9 394.485 184.9 402.335 L 184.9 402.335 L 184.9 402.335 Q 184.9 402.985 184.875 403.46 L 184.875 403.46 L 184.875 403.46 Q 184.85 403.935 184.7 405.235 L 184.7 405.235 L 145.45 405.235 L 145.45 405.235 Q 145.45 409.135 147.225 412.035 L 147.225 412.035 L 147.225 412.035 Q 149 414.935 152.2 416.56 L 152.2 416.56 L 152.2 416.56 Q 155.4 418.185 159.65 418.185 L 159.65 418.185 L 159.65 418.185 Q 163.65 418.185 166.725 416.635 L 166.725 416.635 L 166.725 416.635 Q 169.8 415.085 172.65 411.685 L 172.65 411.685 L 183.7 417.235 L 183.7 417.235 Q 180.1 423.435 173.5 426.935 L 173.5 426.935 L 173.5 426.935 Q 166.9 430.435 158.8 430.435 Z  M 146 396.735 L 146 396.735 L 169.8 396.735 L 169.8 396.735 Q 169.3 393.785 167.675 391.635 L 167.675 391.635 L 167.675 391.635 Q 166.05 389.485 163.55 388.335 L 163.55 388.335 L 163.55 388.335 Q 161.05 387.185 157.9 387.185 L 157.9 387.185 L 157.9 387.185 Q 154.55 387.185 152 388.335 L 152 388.335 L 152 388.335 Q 149.45 389.485 147.9 391.635 L 147.9 391.635 L 147.9 391.635 Q 146.35 393.785 146 396.735 Z  M 215.95 430.435 L 215.95 430.435 L 215.95 430.435 Q 208.3 430.435 204.05 425.56 L 204.05 425.56 L 204.05 425.56 Q 199.8 420.685 199.8 411.935 L 199.8 411.935 L 199.8 389.285 L 192.95 389.285 L 192.95 377.635 L 199.8 377.635 L 199.8 358.435 L 215.15 358.435 L 215.15 377.635 L 226.4 377.635 L 226.4 389.285 L 215.15 389.285 L 215.15 410.835 L 215.15 410.835 Q 215.15 413.735 216.325 415.235 L 216.325 415.235 L 216.325 415.235 Q 217.5 416.735 219.65 416.735 L 219.65 416.735 L 219.65 416.735 Q 222.05 416.735 224.25 415.135 L 224.25 415.135 L 228.1 427.435 L 228.1 427.435 Q 225.5 428.835 222.275 429.635 L 222.275 429.635 L 222.275 429.635 Q 219.05 430.435 215.95 430.435 Z  M 1133.25 297.64 L 1133.25 297.64 L 1133.25 297.64 Q 1125.6 297.64 1121.35 292.765 L 1121.35 292.765 L 1121.35 292.765 Q 1117.1 287.89 1117.1 279.14 L 1117.1 279.14 L 1117.1 256.49 L 1110.25 256.49 L 1110.25 244.84 L 1117.1 244.84 L 1117.1 225.64 L 1132.45 225.64 L 1132.45 244.84 L 1143.7 244.84 L 1143.7 256.49 L 1132.45 256.49 L 1132.45 278.04 L 1132.45 278.04 Q 1132.45 280.94 1133.625 282.44 L 1133.625 282.44 L 1133.625 282.44 Q 1134.8 283.94 1136.95 283.94 L 1136.95 283.94 L 1136.95 283.94 Q 1139.35 283.94 1141.55 282.34 L 1141.55 282.34 L 1145.4 294.64 L 1145.4 294.64 Q 1142.8 296.04 1139.575 296.84 L 1139.575 296.84 L 1139.575 296.84 Q 1136.35 297.64 1133.25 297.64 Z  M 1184.15 297.64 L 1184.15 297.64 L 1184.15 297.64 Q 1175.7 297.64 1168.9 294.165 L 1168.9 294.165 L 1168.9 294.165 Q 1162.1 290.69 1158.1 284.565 L 1158.1 284.565 L 1158.1 284.565 Q 1154.1 278.44 1154.1 270.44 L 1154.1 270.44 L 1154.1 270.44 Q 1154.1 262.44 1158.075 256.315 L 1158.075 256.315 L 1158.075 256.315 Q 1162.05 250.19 1168.875 246.715 L 1168.875 246.715 L 1168.875 246.715 Q 1175.7 243.24 1184.15 243.24 L 1184.15 243.24 L 1184.15 243.24 Q 1192.65 243.24 1199.45 246.715 L 1199.45 246.715 L 1199.45 246.715 Q 1206.25 250.19 1210.225 256.315 L 1210.225 256.315 L 1210.225 256.315 Q 1214.2 262.44 1214.2 270.44 L 1214.2 270.44 L 1214.2 270.44 Q 1214.2 278.44 1210.225 284.565 L 1210.225 284.565 L 1210.225 284.565 Q 1206.25 290.69 1199.45 294.165 L 1199.45 294.165 L 1199.45 294.165 Q 1192.65 297.64 1184.15 297.64 Z  M 1184.2 284.54 L 1184.2 284.54 L 1184.2 284.54 Q 1188.1 284.54 1191.3 282.74 L 1191.3 282.74 L 1191.3 282.74 Q 1194.5 280.94 1196.35 277.765 L 1196.35 277.765 L 1196.35 277.765 Q 1198.2 274.59 1198.2 270.44 L 1198.2 270.44 L 1198.2 270.44 Q 1198.2 266.29 1196.35 263.115 L 1196.35 263.115 L 1196.35 263.115 Q 1194.5 259.94 1191.3 258.14 L 1191.3 258.14 L 1191.3 258.14 Q 1188.1 256.34 1184.2 256.34 L 1184.2 256.34 L 1184.2 256.34 Q 1180.25 256.34 1177.075 258.14 L 1177.075 258.14 L 1177.075 258.14 Q 1173.9 259.94 1172.05 263.115 L 1172.05 263.115 L 1172.05 263.115 Q 1170.2 266.29 1170.2 270.44 L 1170.2 270.44 L 1170.2 270.44 Q 1170.2 274.59 1172.05 277.765 L 1172.05 277.765 L 1172.05 277.765 Q 1173.9 280.94 1177.075 282.74 L 1177.075 282.74 L 1177.075 282.74 Q 1180.25 284.54 1184.2 284.54 Z  M 796.65 323.54 L 796.65 323.54 L 796.65 323.54 Q 786.3 323.54 779.25 319.765 L 779.25 319.765 L 779.25 319.765 Q 772.2 315.99 769 308.64 L 769 308.64 L 781.5 302.54 L 781.5 302.54 Q 783.6 306.09 787.7 308.19 L 787.7 308.19 L 787.7 308.19 Q 791.8 310.29 796.6 310.29 L 796.6 310.29 L 796.6 310.29 Q 800.95 310.29 804.25 308.565 L 804.25 308.565 L 804.25 308.565 Q 807.55 306.84 809.4 303.715 L 809.4 303.715 L 809.4 303.715 Q 811.25 300.59 811.25 296.49 L 811.25 296.49 L 811.25 289.29 L 811.25 289.29 Q 807.85 293.24 803.2 295.44 L 803.2 295.44 L 803.2 295.44 Q 798.55 297.64 793.2 297.64 L 793.2 297.64 L 793.2 297.64 Q 786.25 297.64 780.525 294.165 L 780.525 294.165 L 780.525 294.165 Q 774.8 290.69 771.4 284.54 L 771.4 284.54 L 771.4 284.54 Q 768 278.39 768 270.44 L 768 270.44 L 768 270.44 Q 768 262.64 771.325 256.515 L 771.325 256.515 L 771.325 256.515 Q 774.65 250.39 780.425 246.815 L 780.425 246.815 L 780.425 246.815 Q 786.2 243.24 793.6 243.24 L 793.6 243.24 L 793.6 243.24 Q 799 243.24 803.6 245.315 L 803.6 245.315 L 803.6 245.315 Q 808.2 247.39 811.25 251.09 L 811.25 251.09 L 811.25 244.84 L 826.6 244.84 L 826.6 297.44 L 826.6 297.44 Q 826.6 304.99 823.325 310.89 L 823.325 310.89 L 823.325 310.89 Q 820.05 316.79 813.4 320.165 L 813.4 320.165 L 813.4 320.165 Q 806.75 323.54 796.65 323.54 Z  M 797.8 284.59 L 797.8 284.59 L 797.8 284.59 Q 801.85 284.59 804.975 282.765 L 804.975 282.765 L 804.975 282.765 Q 808.1 280.94 809.85 277.765 L 809.85 277.765 L 809.85 277.765 Q 811.6 274.59 811.6 270.54 L 811.6 270.54 L 811.6 270.54 Q 811.6 266.39 809.825 263.19 L 809.825 263.19 L 809.825 263.19 Q 808.05 259.99 804.95 258.14 L 804.95 258.14 L 804.95 258.14 Q 801.85 256.29 797.9 256.29 L 797.9 256.29 L 797.9 256.29 Q 793.95 256.29 790.85 258.14 L 790.85 258.14 L 790.85 258.14 Q 787.75 259.99 785.95 263.215 L 785.95 263.215 L 785.95 263.215 Q 784.15 266.44 784.15 270.54 L 784.15 270.54 L 784.15 270.54 Q 784.15 274.59 785.9 277.765 L 785.9 277.765 L 785.9 277.765 Q 787.65 280.94 790.75 282.765 L 790.75 282.765 L 790.75 282.765 Q 793.85 284.59 797.8 284.59 Z  M 869.65 297.64 L 869.65 297.64 L 869.65 297.64 Q 861.2 297.64 854.4 294.165 L 854.4 294.165 L 854.4 294.165 Q 847.6 290.69 843.6 284.565 L 843.6 284.565 L 843.6 284.565 Q 839.6 278.44 839.6 270.44 L 839.6 270.44 L 839.6 270.44 Q 839.6 262.44 843.575 256.315 L 843.575 256.315 L 843.575 256.315 Q 847.55 250.19 854.375 246.715 L 854.375 246.715 L 854.375 246.715 Q 861.2 243.24 869.65 243.24 L 869.65 243.24 L 869.65 243.24 Q 878.15 243.24 884.95 246.715 L 884.95 246.715 L 884.95 246.715 Q 891.75 250.19 895.725 256.315 L 895.725 256.315 L 895.725 256.315 Q 899.7 262.44 899.7 270.44 L 899.7 270.44 L 899.7 270.44 Q 899.7 278.44 895.725 284.565 L 895.725 284.565 L 895.725 284.565 Q 891.75 290.69 884.95 294.165 L 884.95 294.165 L 884.95 294.165 Q 878.15 297.64 869.65 297.64 Z  M 869.7 284.54 L 869.7 284.54 L 869.7 284.54 Q 873.6 284.54 876.8 282.74 L 876.8 282.74 L 876.8 282.74 Q 880 280.94 881.85 277.765 L 881.85 277.765 L 881.85 277.765 Q 883.7 274.59 883.7 270.44 L 883.7 270.44 L 883.7 270.44 Q 883.7 266.29 881.85 263.115 L 881.85 263.115 L 881.85 263.115 Q 880 259.94 876.8 258.14 L 876.8 258.14 L 876.8 258.14 Q 873.6 256.34 869.7 256.34 L 869.7 256.34 L 869.7 256.34 Q 865.75 256.34 862.575 258.14 L 862.575 258.14 L 862.575 258.14 Q 859.4 259.94 857.55 263.115 L 857.55 263.115 L 857.55 263.115 Q 855.7 266.29 855.7 270.44 L 855.7 270.44 L 855.7 270.44 Q 855.7 274.59 857.55 277.765 L 857.55 277.765 L 857.55 277.765 Q 859.4 280.94 862.575 282.74 L 862.575 282.74 L 862.575 282.74 Q 865.75 284.54 869.7 284.54 Z  M 928.4 296.04 L 913.05 296.04 L 913.05 244.84 L 928.4 244.84 L 928.4 296.04 L 928.4 296.04 Z  M 920.75 234.19 L 920.75 234.19 L 920.75 234.19 Q 918.25 234.19 916.175 232.965 L 916.175 232.965 L 916.175 232.965 Q 914.1 231.74 912.85 229.64 L 912.85 229.64 L 912.85 229.64 Q 911.6 227.54 911.6 225.04 L 911.6 225.04 L 911.6 225.04 Q 911.6 222.54 912.85 220.49 L 912.85 220.49 L 912.85 220.49 Q 914.1 218.44 916.175 217.215 L 916.175 217.215 L 916.175 217.215 Q 918.25 215.99 920.75 215.99 L 920.75 215.99 L 920.75 215.99 Q 923.25 215.99 925.3 217.215 L 925.3 217.215 L 925.3 217.215 Q 927.35 218.44 928.575 220.49 L 928.575 220.49 L 928.575 220.49 Q 929.8 222.54 929.8 225.04 L 929.8 225.04 L 929.8 225.04 Q 929.8 227.54 928.575 229.64 L 928.575 229.64 L 928.575 229.64 Q 927.35 231.74 925.3 232.965 L 925.3 232.965 L 925.3 232.965 Q 923.25 234.19 920.75 234.19 Z  M 961.85 296.04 L 946.5 296.04 L 946.5 244.84 L 961.85 244.84 L 961.85 250.54 L 961.85 250.54 Q 964.8 247.24 969.225 245.24 L 969.225 245.24 L 969.225 245.24 Q 973.65 243.24 979 243.24 L 979 243.24 L 979 243.24 Q 984.9 243.24 989.375 245.815 L 989.375 245.815 L 989.375 245.815 Q 993.85 248.39 996.4 252.965 L 996.4 252.965 L 996.4 252.965 Q 998.95 257.54 998.95 263.64 L 998.95 263.64 L 998.95 296.04 L 983.6 296.04 L 983.6 266.89 L 983.6 266.89 Q 983.6 261.39 980.725 258.315 L 980.725 258.315 L 980.725 258.315 Q 977.85 255.24 972.85 255.24 L 972.85 255.24 L 972.85 255.24 Q 969.45 255.24 966.975 256.615 L 966.975 256.615 L 966.975 256.615 Q 964.5 257.99 963.175 260.365 L 963.175 260.365 L 963.175 260.365 Q 961.85 262.74 961.85 265.74 L 961.85 265.74 L 961.85 296.04 L 961.85 296.04 Z  M 1040.65 323.54 L 1040.65 323.54 L 1040.65 323.54 Q 1030.3 323.54 1023.25 319.765 L 1023.25 319.765 L 1023.25 319.765 Q 1016.2 315.99 1013 308.64 L 1013 308.64 L 1025.5 302.54 L 1025.5 302.54 Q 1027.6 306.09 1031.7 308.19 L 1031.7 308.19 L 1031.7 308.19 Q 1035.8 310.29 1040.6 310.29 L 1040.6 310.29 L 1040.6 310.29 Q 1044.95 310.29 1048.25 308.565 L 1048.25 308.565 L 1048.25 308.565 Q 1051.55 306.84 1053.4 303.715 L 1053.4 303.715 L 1053.4 303.715 Q 1055.25 300.59 1055.25 296.49 L 1055.25 296.49 L 1055.25 289.29 L 1055.25 289.29 Q 1051.85 293.24 1047.2 295.44 L 1047.2 295.44 L 1047.2 295.44 Q 1042.55 297.64 1037.2 297.64 L 1037.2 297.64 L 1037.2 297.64 Q 1030.25 297.64 1024.525 294.165 L 1024.525 294.165 L 1024.525 294.165 Q 1018.8 290.69 1015.4 284.54 L 1015.4 284.54 L 1015.4 284.54 Q 1012 278.39 1012 270.44 L 1012 270.44 L 1012 270.44 Q 1012 262.64 1015.325 256.515 L 1015.325 256.515 L 1015.325 256.515 Q 1018.65 250.39 1024.425 246.815 L 1024.425 246.815 L 1024.425 246.815 Q 1030.2 243.24 1037.6 243.24 L 1037.6 243.24 L 1037.6 243.24 Q 1043 243.24 1047.6 245.315 L 1047.6 245.315 L 1047.6 245.315 Q 1052.2 247.39 1055.25 251.09 L 1055.25 251.09 L 1055.25 244.84 L 1070.6 244.84 L 1070.6 297.44 L 1070.6 297.44 Q 1070.6 304.99 1067.325 310.89 L 1067.325 310.89 L 1067.325 310.89 Q 1064.05 316.79 1057.4 320.165 L 1057.4 320.165 L 1057.4 320.165 Q 1050.75 323.54 1040.65 323.54 Z  M 1041.8 284.59 L 1041.8 284.59 L 1041.8 284.59 Q 1045.85 284.59 1048.975 282.765 L 1048.975 282.765 L 1048.975 282.765 Q 1052.1 280.94 1053.85 277.765 L 1053.85 277.765 L 1053.85 277.765 Q 1055.6 274.59 1055.6 270.54 L 1055.6 270.54 L 1055.6 270.54 Q 1055.6 266.39 1053.825 263.19 L 1053.825 263.19 L 1053.825 263.19 Q 1052.05 259.99 1048.95 258.14 L 1048.95 258.14 L 1048.95 258.14 Q 1045.85 256.29 1041.9 256.29 L 1041.9 256.29 L 1041.9 256.29 Q 1037.95 256.29 1034.85 258.14 L 1034.85 258.14 L 1034.85 258.14 Q 1031.75 259.99 1029.95 263.215 L 1029.95 263.215 L 1029.95 263.215 Q 1028.15 266.44 1028.15 270.54 L 1028.15 270.54 L 1028.15 270.54 Q 1028.15 274.59 1029.9 277.765 L 1029.9 277.765 L 1029.9 277.765 Q 1031.65 280.94 1034.75 282.765 L 1034.75 282.765 L 1034.75 282.765 Q 1037.85 284.59 1041.8 284.59 Z  M 462.35 296.04 L 452.1 296.04 L 425.2 244.84 L 442.75 244.84 L 456.75 275.59 L 469.95 244.84 L 480.4 244.84 L 493.6 275.59 L 507.6 244.84 L 525.15 244.84 L 498.25 296.04 L 487.95 296.04 L 475.15 266.49 L 462.35 296.04 L 462.35 296.04 Z  M 557.85 297.64 L 557.85 297.64 L 557.85 297.64 Q 549.55 297.64 542.975 294.065 L 542.975 294.065 L 542.975 294.065 Q 536.4 290.49 532.55 284.34 L 532.55 284.34 L 532.55 284.34 Q 528.7 278.19 528.7 270.44 L 528.7 270.44 L 528.7 270.44 Q 528.7 264.74 530.875 259.79 L 530.875 259.79 L 530.875 259.79 Q 533.05 254.84 536.95 251.115 L 536.95 251.115 L 536.95 251.115 Q 540.85 247.39 546 245.315 L 546 245.315 L 546 245.315 Q 551.15 243.24 557.15 243.24 L 557.15 243.24 L 557.15 243.24 Q 565.15 243.24 571.175 246.565 L 571.175 246.565 L 571.175 246.565 Q 577.2 249.89 580.575 255.79 L 580.575 255.79 L 580.575 255.79 Q 583.95 261.69 583.95 269.54 L 583.95 269.54 L 583.95 269.54 Q 583.95 270.19 583.925 270.665 L 583.925 270.665 L 583.925 270.665 Q 583.9 271.14 583.75 272.44 L 583.75 272.44 L 544.5 272.44 L 544.5 272.44 Q 544.5 276.34 546.275 279.24 L 546.275 279.24 L 546.275 279.24 Q 548.05 282.14 551.25 283.765 L 551.25 283.765 L 551.25 283.765 Q 554.45 285.39 558.7 285.39 L 558.7 285.39 L 558.7 285.39 Q 562.7 285.39 565.775 283.84 L 565.775 283.84 L 565.775 283.84 Q 568.85 282.29 571.7 278.89 L 571.7 278.89 L 582.75 284.44 L 582.75 284.44 Q 579.15 290.64 572.55 294.14 L 572.55 294.14 L 572.55 294.14 Q 565.95 297.64 557.85 297.64 Z  M 545.05 263.94 L 545.05 263.94 L 568.85 263.94 L 568.85 263.94 Q 568.35 260.99 566.725 258.84 L 566.725 258.84 L 566.725 258.84 Q 565.1 256.69 562.6 255.54 L 562.6 255.54 L 562.6 255.54 Q 560.1 254.39 556.95 254.39 L 556.95 254.39 L 556.95 254.39 Q 553.6 254.39 551.05 255.54 L 551.05 255.54 L 551.05 255.54 Q 548.5 256.69 546.95 258.84 L 546.95 258.84 L 546.95 258.84 Q 545.4 260.99 545.05 263.94 Z  M 610.25 245.14 L 601 245.14 L 598.25 212.29 L 613.05 212.29 L 610.25 245.14 L 610.25 245.14 Z  M 646.85 296.04 L 631.5 296.04 L 631.5 244.84 L 646.85 244.84 L 646.85 252.19 L 646.85 252.19 Q 649.7 247.89 653.825 245.565 L 653.825 245.565 L 653.825 245.565 Q 657.95 243.24 662.7 243.24 L 662.7 243.24 L 662.7 243.24 Q 665.4 243.24 668.3 244.04 L 668.3 244.04 L 668.3 244.04 Q 671.2 244.84 673.15 246.09 L 673.15 246.09 L 666.75 259.04 L 666.75 259.04 Q 665.05 257.89 662.775 257.215 L 662.775 257.215 L 662.775 257.215 Q 660.5 256.54 658.55 256.54 L 658.55 256.54 L 658.55 256.54 Q 655.55 256.54 652.85 258.09 L 652.85 258.09 L 652.85 258.09 Q 650.15 259.64 648.5 262.115 L 648.5 262.115 L 648.5 262.115 Q 646.85 264.59 646.85 267.44 L 646.85 267.44 L 646.85 296.04 L 646.85 296.04 Z  M 705.65 297.64 L 705.65 297.64 L 705.65 297.64 Q 697.35 297.64 690.775 294.065 L 690.775 294.065 L 690.775 294.065 Q 684.2 290.49 680.35 284.34 L 680.35 284.34 L 680.35 284.34 Q 676.5 278.19 676.5 270.44 L 676.5 270.44 L 676.5 270.44 Q 676.5 264.74 678.675 259.79 L 678.675 259.79 L 678.675 259.79 Q 680.85 254.84 684.75 251.115 L 684.75 251.115 L 684.75 251.115 Q 688.65 247.39 693.8 245.315 L 693.8 245.315 L 693.8 245.315 Q 698.95 243.24 704.95 243.24 L 704.95 243.24 L 704.95 243.24 Q 712.95 243.24 718.975 246.565 L 718.975 246.565 L 718.975 246.565 Q 725 249.89 728.375 255.79 L 728.375 255.79 L 728.375 255.79 Q 731.75 261.69 731.75 269.54 L 731.75 269.54 L 731.75 269.54 Q 731.75 270.19 731.725 270.665 L 731.725 270.665 L 731.725 270.665 Q 731.7 271.14 731.55 272.44 L 731.55 272.44 L 692.3 272.44 L 692.3 272.44 Q 692.3 276.34 694.075 279.24 L 694.075 279.24 L 694.075 279.24 Q 695.85 282.14 699.05 283.765 L 699.05 283.765 L 699.05 283.765 Q 702.25 285.39 706.5 285.39 L 706.5 285.39 L 706.5 285.39 Q 710.5 285.39 713.575 283.84 L 713.575 283.84 L 713.575 283.84 Q 716.65 282.29 719.5 278.89 L 719.5 278.89 L 730.55 284.44 L 730.55 284.44 Q 726.95 290.64 720.35 294.14 L 720.35 294.14 L 720.35 294.14 Q 713.75 297.64 705.65 297.64 Z  M 692.85 263.94 L 692.85 263.94 L 716.65 263.94 L 716.65 263.94 Q 716.15 260.99 714.525 258.84 L 714.525 258.84 L 714.525 258.84 Q 712.9 256.69 710.4 255.54 L 710.4 255.54 L 710.4 255.54 Q 707.9 254.39 704.75 254.39 L 704.75 254.39 L 704.75 254.39 Q 701.4 254.39 698.85 255.54 L 698.85 255.54 L 698.85 255.54 Q 696.3 256.69 694.75 258.84 L 694.75 258.84 L 694.75 258.84 Q 693.2 260.99 692.85 263.94 Z  M 145.4 297.64 L 145.4 297.64 L 145.4 297.64 Q 137.75 297.64 133.5 292.765 L 133.5 292.765 L 133.5 292.765 Q 129.25 287.89 129.25 279.14 L 129.25 279.14 L 129.25 256.49 L 122.4 256.49 L 122.4 244.84 L 129.25 244.84 L 129.25 225.64 L 144.6 225.64 L 144.6 244.84 L 155.85 244.84 L 155.85 256.49 L 144.6 256.49 L 144.6 278.04 L 144.6 278.04 Q 144.6 280.94 145.775 282.44 L 145.775 282.44 L 145.775 282.44 Q 146.95 283.94 149.1 283.94 L 149.1 283.94 L 149.1 283.94 Q 151.5 283.94 153.7 282.34 L 153.7 282.34 L 157.55 294.64 L 157.55 294.64 Q 154.95 296.04 151.725 296.84 L 151.725 296.84 L 151.725 296.84 Q 148.5 297.64 145.4 297.64 Z  M 186.15 296.04 L 170.8 296.04 L 170.8 210.04 L 186.15 210.04 L 186.15 250.54 L 186.15 250.54 Q 189.1 247.24 193.525 245.24 L 193.525 245.24 L 193.525 245.24 Q 197.95 243.24 203.3 243.24 L 203.3 243.24 L 203.3 243.24 Q 209.2 243.24 213.675 245.815 L 213.675 245.815 L 213.675 245.815 Q 218.15 248.39 220.7 252.965 L 220.7 252.965 L 220.7 252.965 Q 223.25 257.54 223.25 263.64 L 223.25 263.64 L 223.25 296.04 L 207.9 296.04 L 207.9 266.89 L 207.9 266.89 Q 207.9 261.39 205.025 258.315 L 205.025 258.315 L 205.025 258.315 Q 202.15 255.24 197.15 255.24 L 197.15 255.24 L 197.15 255.24 Q 193.75 255.24 191.275 256.615 L 191.275 256.615 L 191.275 256.615 Q 188.8 257.99 187.475 260.365 L 187.475 260.365 L 187.475 260.365 Q 186.15 262.74 186.15 265.74 L 186.15 265.74 L 186.15 296.04 L 186.15 296.04 Z  M 255.6 296.04 L 240.25 296.04 L 240.25 244.84 L 255.6 244.84 L 255.6 296.04 L 255.6 296.04 Z  M 247.95 234.19 L 247.95 234.19 L 247.95 234.19 Q 245.45 234.19 243.375 232.965 L 243.375 232.965 L 243.375 232.965 Q 241.3 231.74 240.05 229.64 L 240.05 229.64 L 240.05 229.64 Q 238.8 227.54 238.8 225.04 L 238.8 225.04 L 238.8 225.04 Q 238.8 222.54 240.05 220.49 L 240.05 220.49 L 240.05 220.49 Q 241.3 218.44 243.375 217.215 L 243.375 217.215 L 243.375 217.215 Q 245.45 215.99 247.95 215.99 L 247.95 215.99 L 247.95 215.99 Q 250.45 215.99 252.5 217.215 L 252.5 217.215 L 252.5 217.215 Q 254.55 218.44 255.775 220.49 L 255.775 220.49 L 255.775 220.49 Q 257 222.54 257 225.04 L 257 225.04 L 257 225.04 Q 257 227.54 255.775 229.64 L 255.775 229.64 L 255.775 229.64 Q 254.55 231.74 252.5 232.965 L 252.5 232.965 L 252.5 232.965 Q 250.45 234.19 247.95 234.19 Z  M 289.05 296.04 L 273.7 296.04 L 273.7 244.84 L 289.05 244.84 L 289.05 250.54 L 289.05 250.54 Q 292 247.24 296.425 245.24 L 296.425 245.24 L 296.425 245.24 Q 300.85 243.24 306.2 243.24 L 306.2 243.24 L 306.2 243.24 Q 312.1 243.24 316.575 245.815 L 316.575 245.815 L 316.575 245.815 Q 321.05 248.39 323.6 252.965 L 323.6 252.965 L 323.6 252.965 Q 326.15 257.54 326.15 263.64 L 326.15 263.64 L 326.15 296.04 L 310.8 296.04 L 310.8 266.89 L 310.8 266.89 Q 310.8 261.39 307.925 258.315 L 307.925 258.315 L 307.925 258.315 Q 305.05 255.24 300.05 255.24 L 300.05 255.24 L 300.05 255.24 Q 296.65 255.24 294.175 256.615 L 294.175 256.615 L 294.175 256.615 Q 291.7 257.99 290.375 260.365 L 290.375 260.365 L 290.375 260.365 Q 289.05 262.74 289.05 265.74 L 289.05 265.74 L 289.05 296.04 L 289.05 296.04 Z  M 358.55 296.04 L 343.2 296.04 L 343.2 210.04 L 358.55 210.04 L 358.55 263.54 L 377.45 244.84 L 397.35 244.84 L 372.3 269.94 L 398.5 296.04 L 378.8 296.04 L 358.55 275.79 L 358.55 296.04 L 358.55 296.04 Z  M 80.45 296.04 L 64.25 296.04 L 64.25 213.54 L 80.45 213.54 L 80.45 296.04 L 80.45 296.04 Z " fill="rgb(0,185,174)"/><path d=" M 410 165 L 391.95 165 L 368.2 82.5 L 386.2 82.5 L 401.8 142.8 L 419.4 82.5 L 431.55 82.5 L 449.1 142.8 L 464.7 82.5 L 482.75 82.5 L 458.95 165 L 440.95 165 L 425.45 113.75 L 410 165 L 410 165 Z  M 512.4 166.6 L 512.4 166.6 L 512.4 166.6 Q 503.95 166.6 497.15 163.125 L 497.15 163.125 L 497.15 163.125 Q 490.35 159.65 486.35 153.525 L 486.35 153.525 L 486.35 153.525 Q 482.35 147.4 482.35 139.4 L 482.35 139.4 L 482.35 139.4 Q 482.35 131.4 486.325 125.275 L 486.325 125.275 L 486.325 125.275 Q 490.3 119.15 497.125 115.675 L 497.125 115.675 L 497.125 115.675 Q 503.95 112.2 512.4 112.2 L 512.4 112.2 L 512.4 112.2 Q 520.9 112.2 527.7 115.675 L 527.7 115.675 L 527.7 115.675 Q 534.5 119.15 538.475 125.275 L 538.475 125.275 L 538.475 125.275 Q 542.45 131.4 542.45 139.4 L 542.45 139.4 L 542.45 139.4 Q 542.45 147.4 538.475 153.525 L 538.475 153.525 L 538.475 153.525 Q 534.5 159.65 527.7 163.125 L 527.7 163.125 L 527.7 163.125 Q 520.9 166.6 512.4 166.6 Z  M 512.45 153.5 L 512.45 153.5 L 512.45 153.5 Q 516.35 153.5 519.55 151.7 L 519.55 151.7 L 519.55 151.7 Q 522.75 149.9 524.6 146.725 L 524.6 146.725 L 524.6 146.725 Q 526.45 143.55 526.45 139.4 L 526.45 139.4 L 526.45 139.4 Q 526.45 135.25 524.6 132.075 L 524.6 132.075 L 524.6 132.075 Q 522.75 128.9 519.55 127.1 L 519.55 127.1 L 519.55 127.1 Q 516.35 125.3 512.45 125.3 L 512.45 125.3 L 512.45 125.3 Q 508.5 125.3 505.325 127.1 L 505.325 127.1 L 505.325 127.1 Q 502.15 128.9 500.3 132.075 L 500.3 132.075 L 500.3 132.075 Q 498.45 135.25 498.45 139.4 L 498.45 139.4 L 498.45 139.4 Q 498.45 143.55 500.3 146.725 L 500.3 146.725 L 500.3 146.725 Q 502.15 149.9 505.325 151.7 L 505.325 151.7 L 505.325 151.7 Q 508.5 153.5 512.45 153.5 Z  M 571.2 165 L 555.85 165 L 555.85 113.8 L 571.2 113.8 L 571.2 121.15 L 571.2 121.15 Q 574.05 116.85 578.175 114.525 L 578.175 114.525 L 578.175 114.525 Q 582.3 112.2 587.05 112.2 L 587.05 112.2 L 587.05 112.2 Q 589.75 112.2 592.65 113 L 592.65 113 L 592.65 113 Q 595.55 113.8 597.5 115.05 L 597.5 115.05 L 591.1 128 L 591.1 128 Q 589.4 126.85 587.125 126.175 L 587.125 126.175 L 587.125 126.175 Q 584.85 125.5 582.9 125.5 L 582.9 125.5 L 582.9 125.5 Q 579.9 125.5 577.2 127.05 L 577.2 127.05 L 577.2 127.05 Q 574.5 128.6 572.85 131.075 L 572.85 131.075 L 572.85 131.075 Q 571.2 133.55 571.2 136.4 L 571.2 136.4 L 571.2 165 L 571.2 165 Z  M 621.35 165 L 606 165 L 606 79 L 621.35 79 L 621.35 165 L 621.35 165 Z  M 660.6 166.6 L 660.6 166.6 L 660.6 166.6 Q 653.65 166.6 647.925 163.125 L 647.925 163.125 L 647.925 163.125 Q 642.2 159.65 638.8 153.5 L 638.8 153.5 L 638.8 153.5 Q 635.4 147.35 635.4 139.4 L 635.4 139.4 L 635.4 139.4 Q 635.4 131.6 638.7 125.475 L 638.7 125.475 L 638.7 125.475 Q 642 119.35 647.775 115.775 L 647.775 115.775 L 647.775 115.775 Q 653.55 112.2 661 112.2 L 661 112.2 L 661 112.2 Q 666.4 112.2 671 114.275 L 671 114.275 L 671 114.275 Q 675.6 116.35 678.65 120.05 L 678.65 120.05 L 678.65 79 L 694 79 L 694 165 L 678.65 165 L 678.65 158.25 L 678.65 158.25 Q 675.25 162.2 670.6 164.4 L 670.6 164.4 L 670.6 164.4 Q 665.95 166.6 660.6 166.6 Z  M 665.2 153.55 L 665.2 153.55 L 665.2 153.55 Q 669.25 153.55 672.35 151.725 L 672.35 151.725 L 672.35 151.725 Q 675.45 149.9 677.225 146.7 L 677.225 146.7 L 677.225 146.7 Q 679 143.5 679 139.45 L 679 139.45 L 679 139.45 Q 679 135.35 677.225 132.15 L 677.225 132.15 L 677.225 132.15 Q 675.45 128.95 672.35 127.1 L 672.35 127.1 L 672.35 127.1 Q 669.25 125.25 665.25 125.25 L 665.25 125.25 L 665.25 125.25 Q 661.3 125.25 658.225 127.1 L 658.225 127.1 L 658.225 127.1 Q 655.15 128.95 653.35 132.175 L 653.35 132.175 L 653.35 132.175 Q 651.55 135.4 651.55 139.5 L 651.55 139.5 L 651.55 139.5 Q 651.55 143.55 653.3 146.725 L 653.3 146.725 L 653.3 146.725 Q 655.05 149.9 658.15 151.725 L 658.15 151.725 L 658.15 151.725 Q 661.25 153.55 665.2 153.55 Z  M 717.6 182.25 L 717.6 182.25 L 713.25 178.7 L 713.25 178.7 Q 714.55 177.45 715.95 175.2 L 715.95 175.2 L 715.95 175.2 Q 717.35 172.95 718.45 170.4 L 718.45 170.4 L 718.45 170.4 Q 719.55 167.85 719.85 165.75 L 719.85 165.75 L 719.85 165.75 Q 716.3 164.9 714.3 162.4 L 714.3 162.4 L 714.3 162.4 Q 712.3 159.9 712.3 156.4 L 712.3 156.4 L 712.3 156.4 Q 712.3 152.05 715.125 149.325 L 715.125 149.325 L 715.125 149.325 Q 717.95 146.6 722.4 146.6 L 722.4 146.6 L 722.4 146.6 Q 726.95 146.6 729.65 149.475 L 729.65 149.475 L 729.65 149.475 Q 732.35 152.35 732.35 157.35 L 732.35 157.35 L 732.35 157.35 Q 732.35 163.35 728.425 169.975 L 728.425 169.975 L 728.425 169.975 Q 724.5 176.6 717.6 182.25 Z  M 80.45 165 L 64.25 165 L 64.25 82.5 L 80.45 82.5 L 80.45 116.55 L 111.3 116.55 L 111.3 82.5 L 127.45 82.5 L 127.45 165 L 111.3 165 L 111.3 130.75 L 80.45 130.75 L 80.45 165 L 80.45 165 Z  M 172.4 166.6 L 172.4 166.6 L 172.4 166.6 Q 164.1 166.6 157.525 163.025 L 157.525 163.025 L 157.525 163.025 Q 150.95 159.45 147.1 153.3 L 147.1 153.3 L 147.1 153.3 Q 143.25 147.15 143.25 139.4 L 143.25 139.4 L 143.25 139.4 Q 143.25 133.7 145.425 128.75 L 145.425 128.75 L 145.425 128.75 Q 147.6 123.8 151.5 120.075 L 151.5 120.075 L 151.5 120.075 Q 155.4 116.35 160.55 114.275 L 160.55 114.275 L 160.55 114.275 Q 165.7 112.2 171.7 112.2 L 171.7 112.2 L 171.7 112.2 Q 179.7 112.2 185.725 115.525 L 185.725 115.525 L 185.725 115.525 Q 191.75 118.85 195.125 124.75 L 195.125 124.75 L 195.125 124.75 Q 198.5 130.65 198.5 138.5 L 198.5 138.5 L 198.5 138.5 Q 198.5 139.15 198.475 139.625 L 198.475 139.625 L 198.475 139.625 Q 198.45 140.1 198.3 141.4 L 198.3 141.4 L 159.05 141.4 L 159.05 141.4 Q 159.05 145.3 160.825 148.2 L 160.825 148.2 L 160.825 148.2 Q 162.6 151.1 165.8 152.725 L 165.8 152.725 L 165.8 152.725 Q 169 154.35 173.25 154.35 L 173.25 154.35 L 173.25 154.35 Q 177.25 154.35 180.325 152.8 L 180.325 152.8 L 180.325 152.8 Q 183.4 151.25 186.25 147.85 L 186.25 147.85 L 197.3 153.4 L 197.3 153.4 Q 193.7 159.6 187.1 163.1 L 187.1 163.1 L 187.1 163.1 Q 180.5 166.6 172.4 166.6 Z  M 159.6 132.9 L 159.6 132.9 L 183.4 132.9 L 183.4 132.9 Q 182.9 129.95 181.275 127.8 L 181.275 127.8 L 181.275 127.8 Q 179.65 125.65 177.15 124.5 L 177.15 124.5 L 177.15 124.5 Q 174.65 123.35 171.5 123.35 L 171.5 123.35 L 171.5 123.35 Q 168.15 123.35 165.6 124.5 L 165.6 124.5 L 165.6 124.5 Q 163.05 125.65 161.5 127.8 L 161.5 127.8 L 161.5 127.8 Q 159.95 129.95 159.6 132.9 Z  M 227.55 165 L 212.2 165 L 212.2 79 L 227.55 79 L 227.55 165 L 227.55 165 Z  M 260.95 165 L 245.6 165 L 245.6 79 L 260.95 79 L 260.95 165 L 260.95 165 Z  M 304.5 166.6 L 304.5 166.6 L 304.5 166.6 Q 296.05 166.6 289.25 163.125 L 289.25 163.125 L 289.25 163.125 Q 282.45 159.65 278.45 153.525 L 278.45 153.525 L 278.45 153.525 Q 274.45 147.4 274.45 139.4 L 274.45 139.4 L 274.45 139.4 Q 274.45 131.4 278.425 125.275 L 278.425 125.275 L 278.425 125.275 Q 282.4 119.15 289.225 115.675 L 289.225 115.675 L 289.225 115.675 Q 296.05 112.2 304.5 112.2 L 304.5 112.2 L 304.5 112.2 Q 313 112.2 319.8 115.675 L 319.8 115.675 L 319.8 115.675 Q 326.6 119.15 330.575 125.275 L 330.575 125.275 L 330.575 125.275 Q 334.55 131.4 334.55 139.4 L 334.55 139.4 L 334.55 139.4 Q 334.55 147.4 330.575 153.525 L 330.575 153.525 L 330.575 153.525 Q 326.6 159.65 319.8 163.125 L 319.8 163.125 L 319.8 163.125 Q 313 166.6 304.5 166.6 Z  M 304.55 153.5 L 304.55 153.5 L 304.55 153.5 Q 308.45 153.5 311.65 151.7 L 311.65 151.7 L 311.65 151.7 Q 314.85 149.9 316.7 146.725 L 316.7 146.725 L 316.7 146.725 Q 318.55 143.55 318.55 139.4 L 318.55 139.4 L 318.55 139.4 Q 318.55 135.25 316.7 132.075 L 316.7 132.075 L 316.7 132.075 Q 314.85 128.9 311.65 127.1 L 311.65 127.1 L 311.65 127.1 Q 308.45 125.3 304.55 125.3 L 304.55 125.3 L 304.55 125.3 Q 300.6 125.3 297.425 127.1 L 297.425 127.1 L 297.425 127.1 Q 294.25 128.9 292.4 132.075 L 292.4 132.075 L 292.4 132.075 Q 290.55 135.25 290.55 139.4 L 290.55 139.4 L 290.55 139.4 Q 290.55 143.55 292.4 146.725 L 292.4 146.725 L 292.4 146.725 Q 294.25 149.9 297.425 151.7 L 297.425 151.7 L 297.425 151.7 Q 300.6 153.5 304.55 153.5 Z " fill="rgb(0,185,174)"/><g style="isolation:isolate"><path d=" M 1280 350 L 950 350 L 750 620 L 0 620 L 0 650 L 250 650 L 270 670 L 480 670 L 500 650 L 800 650 L 870 560 L 870 540 L 970 400 L 1070 400 L 1100 430 L 1280 430 L 1280 350 Z " fill="rgb(0,185,174)"/><path d=" M 890 0 L 890 40 L 990 90 L 990 130 L 1010 150 L 1280 150 L 1280 100 L 1130 100 L 1100 70 L 1040 70 L 930 15 L 930 0 L 890 0 Z " fill="rgb(253,119,119)"/><path d=" M 0 690 L 60 690 L 80 670 L 180 670 L 220 710 L 700 710 L 730 740 L 900 740 L 1010 580 L 1010 560 L 1060 490 L 1130 490 L 1160 520 L 1280 520 L 1280 600 L 1160 600 L 1130 580 L 1080 580 L 1050 580 L 940 740 L 910 780 L 400 780 L 370 750 L 220 750 L 60 750 L 40 730 L 0 730 L 0 690 Z " fill="rgb(255,193,94)"/><circle vector-effect="non-scaling-stroke" cx="1065" cy="565" r="5" fill="rgb(52,58,64)"/><circle vector-effect="non-scaling-stroke" cx="1125" cy="565" r="5" fill="rgb(52,58,64)"/><path d=" M 1280 540 L 1160 540 L 1160 580 L 1280 580 L 1280 540 Z " fill="rgb(52,58,64)"/><path d=" M 1130 500 L 1060 500 L 1060 510 L 1130 510 L 1130 500 Z " fill="rgb(52,58,64)"/><path d=" M 1130 520 L 1060 520 L 1060 530 L 1130 530 L 1130 520 Z " fill="rgb(52,58,64)"/><path d=" M 1130 540 L 1060 540 L 1060 550 L 1130 550 L 1130 540 Z " fill="rgb(52,58,64)"/><path d=" M 1080 560 L 1080 570 L 1110 570 L 1110 560 L 1080 560 Z " fill="rgb(52,58,64)"/><path d=" M 1040 560 L 1030 550 L 1030 580 L 900 760 L 910 760 L 1040 580 L 1040 560 Z " fill="rgb(52,58,64)"/></g></g></svg>