<?xml version="1.0" encoding="UTF-8" standalone="no"?><!-- Generator: Gravit.io --><svg xmlns="http://www.w3.org/2000/svg" xmlns:xlink="http://www.w3.org/1999/xlink" style="isolation:isolate" viewBox="0 0 1280 800" width="1280pt" height="800pt"><defs><clipPath id="_clipPath_FslTsMs7f3bkGUz3jRE6EpY2zVjQeEQh"><rect width="1280" height="800"/></clipPath></defs><g clip-path="url(#_clipPath_FslTsMs7f3bkGUz3jRE6EpY2zVjQeEQh)"><g style="isolation:isolate"><rect x="0" y="0" width="1280" height="800" transform="matrix(1,0,0,1,0,0)" fill="rgb(52,58,64)"/><path d=" M 0 311.462 L 400 204.283 L 400 418.642 L 0 311.462 Z " fill="rgb(232,232,232)"/><path d=" M 0 568.694 L 400 461.514 L 400 675.873 L 0 568.694 Z " fill="rgb(232,232,232)"/><path d=" M 0 825.925 L 400 718.745 L 400 933.105 L 0 825.925 Z " fill="rgb(232,232,232)"/><path d=" M 400 440.078 L 0 332.898 L 0 547.258 L 400 440.078 Z " fill="rgb(232,232,232)"/><path d=" M 400 182.488 L 0 75.308 L 0 289.668 L 400 182.488 Z " fill="rgb(232,232,232)"/><path d=" M 400 697.309 L 0 590.13 L 0 804.489 L 400 697.309 Z " fill="rgb(232,232,232)"/><path d=" M 420 182.488 L 820 75.308 L 820 289.668 L 420 182.488 Z " fill="rgb(232,232,232)"/><path d=" M 420 439.719 L 820 332.539 L 820 546.899 L 420 439.719 Z " fill="rgb(232,232,232)"/><path d=" M 420 696.95 L 820 589.771 L 820 804.13 L 420 696.95 Z " fill="rgb(232,232,232)"/><path d=" M 820 311.103 L 420 203.924 L 420 418.283 L 820 311.103 Z " fill="rgb(232,232,232)"/><path d=" M 820 568.335 L 420 461.155 L 420 675.514 L 820 568.335 Z " fill="rgb(232,232,232)"/><path d=" M 820 825.925 L 420 718.745 L 420 933.105 L 820 825.925 Z " fill="rgb(232,232,232)"/><path d=" M 839 319.462 L 1239 212.283 L 1239 426.642 L 839 319.462 Z " fill="rgb(232,232,232)"/><path d=" M 839 576.694 L 1239 469.514 L 1239 683.873 L 839 576.694 Z " fill="rgb(232,232,232)"/><path d=" M 839 833.925 L 1239 726.745 L 1239 941.105 L 839 833.925 Z " fill="rgb(232,232,232)"/><path d=" M 1239 448.078 L 839 340.898 L 839 555.258 L 1239 448.078 Z " fill="rgb(232,232,232)"/><path d=" M 1239 190.488 L 839 83.308 L 839 297.668 L 1239 190.488 Z " fill="rgb(232,232,232)"/><path d=" M 1239 705.309 L 839 598.13 L 839 812.489 L 1239 705.309 Z " fill="rgb(232,232,232)"/><path d=" M 1259 190.488 L 1659 83.308 L 1659 297.668 L 1259 190.488 Z " fill="rgb(232,232,232)"/><path d=" M 1259 447.719 L 1659 340.539 L 1659 554.899 L 1259 447.719 Z " fill="rgb(232,232,232)"/><path d=" M 1259 704.95 L 1659 597.771 L 1659 812.13 L 1259 704.95 Z " fill="rgb(232,232,232)"/><path d=" M 1659 319.103 L 1259 211.924 L 1259 426.283 L 1659 319.103 Z " fill="rgb(232,232,232)"/><path d=" M 1659 576.335 L 1259 469.155 L 1259 683.514 L 1659 576.335 Z " fill="rgb(232,232,232)"/><path d=" M 1659 833.925 L 1259 726.745 L 1259 941.105 L 1659 833.925 Z " fill="rgb(232,232,232)"/><path d=" M 839 63.18 L 1009 0 L 1239 -44 L 1239 170.359 L 839 63.18 Z " fill="rgb(232,232,232)"/><path d=" M 1659 63.18 L 1259 -44 L 1259 170.359 L 1659 63.18 Z " fill="rgb(232,232,232)"/></g><g style="isolation:isolate"><path d=" M 580 136.693 L 580 233.154 L 600 238.513 L 600 131.334 L 580 136.693 Z " fill="rgb(52,58,64)"/><path d=" M 580 393.924 L 580 490.385 L 600 495.744 L 600 388.565 L 580 393.924 Z " fill="rgb(52,58,64)"/><path d=" M 660 372.488 L 820 415.36 L 820 393.924 L 700 361.77 L 660 372.488 Z " fill="rgb(52,58,64)"/><path d=" M 480 217.077 L 480 410.001 L 500 404.642 L 500 222.436 L 480 217.077 Z " fill="rgb(52,58,64)"/><path d=" M 540 651.155 L 420 619.001 L 420 597.565 L 580 640.437 L 540 651.155 Z " fill="rgb(52,58,64)"/><path d=" M 240 495.744 L 240 635.078 L 260 640.437 L 260 490.385 L 240 495.744 Z " fill="rgb(52,58,64)"/><path d=" M 360 431.437 L 0 527.898 L 0 506.462 L 340 415.36 L 380 426.078 L 360 431.437 Z " fill="rgb(52,58,64)"/><path d=" M 160 259.949 L 160 367.129 L 180 372.488 L 180 254.59 L 160 259.949 Z " fill="rgb(52,58,64)"/><path d=" M 160 635.078 L 0 677.95 L 0 699.386 L 220 640.437 L 180 629.719 L 160 635.078 Z " fill="rgb(52,58,64)"/><path d=" M 640 635.078 L 640 763.694 L 660 769.053 L 660 629.719 L 640 635.078 Z " fill="rgb(52,58,64)"/><path d=" M 400 313.539 L 180 254.59 L 220 243.872 L 400 292.103 L 400 313.539 Z " fill="rgb(52,58,64)"/><path d=" M 820 179.564 L 600 238.513 L 640 249.231 L 820 201 L 820 179.564 Z " fill="rgb(52,58,64)"/><path d=" M 830 800 L 832 70 L 1250 188 L 1252 800 L 830 800 Z " fill="rgb(52,58,64)"/></g><g style="isolation:isolate"><path d=" M 0 143.063 L 1016 150 L 1030 146 L 1030 117.063 L 1136 87.063 L 1204 87.063 L 1224.688 105.063 L 1280 105.063 L 1280 77 L 1134 77.063 L 1020 109.063 L 1020 135.063 L 0 135.063 L 0 143.063 Z " fill="rgb(198,100,100)"/><path d=" M 0 104.063 L 1013.875 104.063 L 1030 99.375 L 1030 78.063 L 1136 48.063 L 1204 48.063 L 1224.688 66.063 L 1280 66.063 L 1280 38 L 1134 38.063 L 1030 67.559 L 1030 31 L 1020 30 L 1020 96.063 L 0 96.063 L 0 104.063 Z " fill="rgb(198,100,100)"/><path d=" M 0 182.063 L 1013.875 182.063 L 1030 177.375 L 1030 156.063 L 1136 126.063 L 1204 126.063 L 1224.688 144.063 L 1280 144.063 L 1280 116 L 1134 116.063 L 1020 148.063 L 1020 174.063 L 0 174.063 L 0 182.063 Z " fill="rgb(198,100,100)"/><path d=" M 0 182.063 L 0 802 L 9 802 L 1280 804 L 1280 782 L 1280 184 L 1259 190 L 1259 782 L 17 782 L 17 182.063 L 1013.875 182.063 L 1030 177.375 L 1030 122 L 1020 119 L 1020 174.063 L 0 174.063 L 0 182.063 Z " fill="rgb(253,119,119)"/><path d=" M 0 39 L 1013.875 39 L 1030 43.688 L 1030 65 L 1136 95 L 1204 95 L 1224.688 77 L 1280 77 L 1280 105.063 L 1134 105 L 1020 73 L 1020 47 L 0 47 L 0 39 Z " fill="rgb(253,119,119)"/><path d=" M 0 78 L 1013.875 78 L 1030 82.688 L 1030 104 L 1136 134 L 1204 134 L 1224.688 116 L 1280 116 L 1280 144.063 L 1134 144 L 1020 112 L 1020 86 L 0 86 L 0 78 Z " fill="rgb(253,119,119)"/><rect x="0" y="8" width="1020" height="166" transform="matrix(1,0,0,1,0,0)" fill="rgb(52,58,64)"/><path d=" M 0 -0.062 L 1013.875 -0.062 L 1030 4.625 L 1030 25.938 L 1136 55.938 L 1204 55.938 L 1224.688 37.938 L 1280 37.938 L 1280 66 L 1134 65.938 L 1020 33.938 L 1020 7.938 L 7.219 7.938 L 0 15 L 0 -0.062 Z " fill="rgb(253,119,119)"/></g><g style="isolation:isolate"><path d=" M 104 102.083 L 96 102.083 L 70.286 111.805 L 86 22.685 L 66 22.685 L 68 34.028 Q 59.498 82.246 46 158.796 L 66 158.796 L 64 147.453 L 70 113.426 L 102 113.426 Q 98.247 134.708 94 158.796 L 114 158.796 L 112 147.453 L 134 22.685 L 114 22.685 L 116 34.028 Q 110.899 62.957 104 102.083 Z " fill="rgb(198,100,100)"/><path d=" M 464 102.083 L 460 124.768 L 460 124.768 L 452 102.083 L 444 102.083 L 428 124.768 L 428 124.768 L 432 102.083 L 446 22.685 L 426 22.685 L 428 34.028 Q 419.498 82.246 406 158.796 L 426 158.796 L 428 147.453 L 444 124.768 L 448 124.768 L 456 147.453 L 454 158.796 L 474 158.796 L 472 147.453 L 494 22.685 L 474 22.685 L 476 34.028 Q 470.899 62.957 464 102.083 Z " fill="rgb(198,100,100)"/><path d=" M 152 102.083 L 176 102.083 L 176 102.083 L 176 102.083 L 176 102.083 L 174 113.426 L 150 113.426 L 144 147.453 L 172 147.453 L 172 147.453 L 172 147.453 L 176 147.453 L 178 158.796 L 142 158.796 L 142 158.796 L 126 158.796 Q 139.498 82.246 148 34.028 L 146 22.685 L 166 22.685 L 166 22.685 L 166 22.685 L 198 22.685 L 196 34.028 L 164 34.028 L 152 102.083 Z " fill="rgb(198,100,100)"/><path d=" M 204 147.453 L 232 147.453 L 236 147.453 L 238 158.796 L 206 158.796 L 206 158.796 L 186 158.796 Q 199.498 82.246 208 34.028 L 206 22.685 L 226 22.685 L 204 147.453 Z " fill="rgb(198,100,100)"/><path d=" M 264 147.453 L 292 147.453 L 296 147.453 L 298 158.796 L 266 158.796 L 266 158.796 L 246 158.796 Q 259.498 82.246 268 34.028 L 266 22.685 L 286 22.685 L 264 147.453 Z " fill="rgb(198,100,100)"/><path d=" M 652 147.453 L 680 147.453 L 684 147.453 L 686 158.796 L 654 158.796 L 654 158.796 L 634 158.796 Q 647.498 82.246 656 34.028 L 654 22.685 L 674 22.685 L 652 147.453 Z " fill="rgb(198,100,100)"/><path d=" M 354 158.796 L 326 158.796 L 326 158.796 L 306 158.796 Q 319.498 82.246 328 34.028 L 326 22.685 L 346 22.685 L 346 22.685 L 374 22.685 L 374 22.685 L 394 22.685 Q 380.502 99.235 372 147.453 L 374 158.796 L 354 158.796 L 354 158.796 Z  M 356 147.453 L 356 147.453 L 352 147.453 L 324 147.453 L 344 34.028 L 344 34.028 L 348 34.028 L 376 34.028 L 356 147.453 Z " fill-rule="evenodd" fill="rgb(198,100,100)"/><path d=" M 530 158.796 L 502 158.796 L 502 158.796 L 482 158.796 Q 495.498 82.246 504 34.028 L 502 22.685 L 522 22.685 L 522 22.685 L 550 22.685 L 550 22.685 L 570 22.685 Q 556.502 99.235 548 147.453 L 550 158.796 L 530 158.796 L 530 158.796 Z  M 532 147.453 L 532 147.453 L 528 147.453 L 500 147.453 L 520 34.028 L 520 34.028 L 524 34.028 L 552 34.028 L 532 147.453 Z " fill-rule="evenodd" fill="rgb(198,100,100)"/><path d=" M 606 158.796 L 612 124.768 L 606 113.426 L 582 113.426 L 576 147.453 L 578 158.796 L 558 158.796 Q 571.498 82.246 580 34.028 L 578 22.685 L 598 22.685 L 598 22.685 L 626 22.685 L 626 22.685 L 634 22.685 L 644 34.028 L 633.866 91.498 L 622 113.426 L 628 124.768 L 624 147.453 L 626 158.796 L 606 158.796 L 606 158.796 Z  M 618 90.741 L 612 102.083 L 584 102.083 L 596 34.028 L 596 34.028 L 600 34.028 L 628 34.028 L 618 90.741 Z " fill-rule="evenodd" fill="rgb(198,100,100)"/><path d=" M 742 158.796 L 714 158.796 L 714 158.796 L 694 158.796 Q 707.498 82.246 716 34.028 L 714 22.685 L 734 22.685 L 734 22.685 L 762 22.685 L 762 22.685 L 770 22.685 L 780 34.028 Q 768.502 99.235 760 147.453 L 750 158.796 L 742 158.796 L 742 158.796 Z  M 744 147.453 L 744 147.453 L 740 147.453 L 712 147.453 L 732 34.028 L 732 34.028 L 736 34.028 L 764 34.028 L 744 147.453 Z " fill-rule="evenodd" fill="rgb(198,100,100)"/></g><g style="isolation:isolate"><path d=" M 110 102.083 L 102 102.083 L 76.286 111.805 L 92 22.685 L 72 22.685 L 74 34.028 Q 65.498 82.246 52 158.796 L 72 158.796 L 70 147.453 L 76 113.426 L 108 113.426 Q 104.247 134.708 100 158.796 L 120 158.796 L 118 147.453 L 140 22.685 L 120 22.685 L 122 34.028 Q 116.899 62.957 110 102.083 Z " fill="rgb(253,119,119)"/><path d=" M 470 102.083 L 466 124.768 L 466 124.768 L 458 102.083 L 450 102.083 L 434 124.768 L 434 124.768 L 438 102.083 L 452 22.685 L 432 22.685 L 434 34.028 Q 425.498 82.246 412 158.796 L 432 158.796 L 434 147.453 L 450 124.768 L 454 124.768 L 462 147.453 L 460 158.796 L 480 158.796 L 478 147.453 L 500 22.685 L 480 22.685 L 482 34.028 Q 476.899 62.957 470 102.083 Z " fill="rgb(253,119,119)"/><path d=" M 158 102.083 L 182 102.083 L 182 102.083 L 182 102.083 L 182 102.083 L 180 113.426 L 156 113.426 L 150 147.453 L 178 147.453 L 178 147.453 L 178 147.453 L 182 147.453 L 184 158.796 L 148 158.796 L 148 158.796 L 132 158.796 Q 145.498 82.246 154 34.028 L 152 22.685 L 172 22.685 L 172 22.685 L 172 22.685 L 204 22.685 L 202 34.028 L 170 34.028 L 158 102.083 Z " fill="rgb(253,119,119)"/><path d=" M 210 147.453 L 238 147.453 L 242 147.453 L 244 158.796 L 212 158.796 L 212 158.796 L 192 158.796 Q 205.498 82.246 214 34.028 L 212 22.685 L 232 22.685 L 210 147.453 Z " fill="rgb(253,119,119)"/><path d=" M 270 147.453 L 298 147.453 L 302 147.453 L 304 158.796 L 272 158.796 L 272 158.796 L 252 158.796 Q 265.498 82.246 274 34.028 L 272 22.685 L 292 22.685 L 270 147.453 Z " fill="rgb(253,119,119)"/><path d=" M 658 147.453 L 686 147.453 L 690 147.453 L 692 158.796 L 660 158.796 L 660 158.796 L 640 158.796 Q 653.498 82.246 662 34.028 L 660 22.685 L 680 22.685 L 658 147.453 Z " fill="rgb(253,119,119)"/><path d=" M 360 158.796 L 332 158.796 L 332 158.796 L 312 158.796 Q 325.498 82.246 334 34.028 L 332 22.685 L 352 22.685 L 352 22.685 L 380 22.685 L 380 22.685 L 400 22.685 Q 386.502 99.235 378 147.453 L 380 158.796 L 360 158.796 L 360 158.796 Z  M 362 147.453 L 362 147.453 L 358 147.453 L 330 147.453 L 350 34.028 L 350 34.028 L 354 34.028 L 382 34.028 L 362 147.453 Z " fill-rule="evenodd" fill="rgb(253,119,119)"/><path d=" M 536 158.796 L 508 158.796 L 508 158.796 L 488 158.796 Q 501.498 82.246 510 34.028 L 508 22.685 L 528 22.685 L 528 22.685 L 556 22.685 L 556 22.685 L 576 22.685 Q 562.502 99.235 554 147.453 L 556 158.796 L 536 158.796 L 536 158.796 Z  M 538 147.453 L 538 147.453 L 534 147.453 L 506 147.453 L 526 34.028 L 526 34.028 L 530 34.028 L 558 34.028 L 538 147.453 Z " fill-rule="evenodd" fill="rgb(253,119,119)"/><path d=" M 612 158.796 L 618 124.768 L 612 113.426 L 588 113.426 L 582 147.453 L 584 158.796 L 564 158.796 Q 577.498 82.246 586 34.028 L 584 22.685 L 604 22.685 L 604 22.685 L 632 22.685 L 632 22.685 L 640 22.685 L 650 34.028 L 639.866 91.498 L 628 113.426 L 634 124.768 L 630 147.453 L 632 158.796 L 612 158.796 L 612 158.796 Z  M 624 90.741 L 618 102.083 L 590 102.083 L 602 34.028 L 602 34.028 L 606 34.028 L 634 34.028 L 624 90.741 Z " fill-rule="evenodd" fill="rgb(253,119,119)"/><path d=" M 748 158.796 L 720 158.796 L 720 158.796 L 700 158.796 Q 713.498 82.246 722 34.028 L 720 22.685 L 740 22.685 L 740 22.685 L 768 22.685 L 768 22.685 L 776 22.685 L 786 34.028 Q 774.502 99.235 766 147.453 L 756 158.796 L 748 158.796 L 748 158.796 Z  M 750 147.453 L 750 147.453 L 746 147.453 L 718 147.453 L 738 34.028 L 738 34.028 L 742 34.028 L 770 34.028 L 750 147.453 Z " fill-rule="evenodd" fill="rgb(253,119,119)"/></g></g></svg>