<?xml version="1.0" encoding="UTF-8" standalone="no"?><!-- Generator: Gravit.io --><svg xmlns="http://www.w3.org/2000/svg" xmlns:xlink="http://www.w3.org/1999/xlink" style="isolation:isolate" viewBox="0 0 162 32" width="162pt" height="32pt"><defs><clipPath id="_clipPath_ITOfp38ou0aqhj3yHDgyhcHNbWs2K3Bd"><rect width="162" height="32"/></clipPath></defs><g clip-path="url(#_clipPath_ITOfp38ou0aqhj3yHDgyhcHNbWs2K3Bd)"><rect x="-16" y="-4" width="272" height="94" transform="matrix(1,0,0,1,0,0)" fill="rgb(52,58,64)"/><g style="isolation:isolate"/><g style="isolation:isolate"/><g><path d=" M 9.515 31.614 L 24.193 0 L 40 31.614 L 35.484 31.614 L 24.193 9.032 L 14.032 31.614 L 9.515 31.614 Z " fill="rgb(253,119,119)"/><path d=" M -0.081 31.614 L 14.596 0 L 29.274 31.614 L 24.758 31.614 L 14.596 9.032 L 4.435 31.614 L -0.081 31.614 Z " fill="rgb(253,119,119)"/><path d=" M 36 28.306 L 36 31.614 L 161.968 31.614 L 161.968 28.306 L 36 28.306 Z " fill="rgb(253,119,119)"/><path d=" M 0 28.306 L 0 31.614 L 3.968 31.614 L 3.968 28.306 L 0 28.306 Z " fill="rgb(253,119,119)"/><path d=" M 11.959 28.306 L 11.959 31.614 L 26 31.614 L 26 28.306 L 11.959 28.306 Z " fill="rgb(253,119,119)"/></g><path d=" M 102.112 16.68 L 102.496 16.68 L 105.664 6.24 L 107.752 6.24 L 107.752 23.04 L 106.456 23.04 L 106.456 9.072 L 106.144 9.072 L 103.336 18.096 L 101.248 18.096 L 98.464 9.072 L 98.176 9.072 L 98.176 23.04 L 96.904 23.04 L 96.904 6.24 L 98.992 6.24 L 102.112 16.68 Z  M 117.28 16.92 L 117.28 16.92 L 115.312 7.8 L 115 7.8 L 113.008 16.92 L 117.28 16.92 Z  M 112.624 18.336 L 112.624 18.336 L 111.568 23.016 L 110.272 23.016 L 114.112 6.216 L 116.152 6.216 L 119.992 23.016 L 118.72 23.016 L 117.64 18.336 L 112.624 18.336 Z  M 126.472 7.392 L 126.472 7.392 L 126.472 7.392 Q 126.04 7.392 125.584 7.488 L 125.584 7.488 L 125.584 7.488 Q 125.128 7.584 124.72 7.704 L 124.72 7.704 L 124.72 7.704 Q 124.264 7.848 123.808 8.016 L 123.808 8.016 L 123.808 14.76 L 126.472 14.76 L 126.472 14.76 Q 128.2 14.76 129.256 13.728 L 129.256 13.728 L 129.256 13.728 Q 130.312 12.696 130.312 10.8 L 130.312 10.8 L 130.312 10.8 Q 130.312 9.864 130.024 9.216 L 130.024 9.216 L 130.024 9.216 Q 129.736 8.568 129.232 8.16 L 129.232 8.16 L 129.232 8.16 Q 128.728 7.752 128.02 7.572 L 128.02 7.572 L 128.02 7.572 Q 127.312 7.392 126.472 7.392 Z  M 128.92 15.72 L 128.92 15.72 L 131.896 23.04 L 130.552 23.04 L 127.576 16.08 L 127.576 16.08 Q 127.144 16.152 126.64 16.152 L 126.64 16.152 L 123.784 16.152 L 123.784 23.04 L 122.512 23.04 L 122.512 6.936 L 122.512 6.936 Q 123.16 6.696 123.856 6.48 L 123.856 6.48 L 123.856 6.48 Q 124.456 6.288 125.188 6.144 L 125.188 6.144 L 125.188 6.144 Q 125.92 6 126.664 6 L 126.664 6 L 126.664 6 Q 127.648 6 128.56 6.324 L 128.56 6.324 L 128.56 6.324 Q 129.472 6.648 130.168 7.26 L 130.168 7.26 L 130.168 7.26 Q 130.864 7.872 131.272 8.76 L 131.272 8.76 L 131.272 8.76 Q 131.68 9.648 131.68 10.8 L 131.68 10.8 L 131.68 10.8 Q 131.68 11.616 131.488 12.396 L 131.488 12.396 L 131.488 12.396 Q 131.296 13.176 130.936 13.824 L 130.936 13.824 L 130.936 13.824 Q 130.576 14.472 130.06 14.964 L 130.06 14.964 L 130.06 14.964 Q 129.544 15.456 128.92 15.72 Z  M 141.712 6.24 L 141.712 6.24 L 143.056 6.24 L 139.168 23.04 L 137.128 23.04 L 133.36 6.24 L 134.68 6.24 L 138.016 21.456 L 138.328 21.456 L 138.328 21.456 Q 138.592 20.352 138.856 19.08 L 138.856 19.08 L 138.856 19.08 Q 139.096 18 139.396 16.644 L 139.396 16.644 L 139.396 16.644 Q 139.696 15.288 140.032 13.848 L 140.032 13.848 L 140.032 13.848 Q 140.776 10.512 141.712 6.24 Z  M 145.552 6.24 L 152.32 6.24 L 152.32 7.608 L 146.92 7.608 L 146.92 13.896 L 151.144 13.896 L 151.144 15.288 L 146.92 15.288 L 146.92 21.624 L 152.368 21.624 L 152.368 23.016 L 145.552 23.016 L 145.552 6.24 Z  M 155.272 23.04 L 155.272 6.24 L 156.64 6.24 L 156.64 21.696 L 161.968 21.696 L 161.968 23.04 L 155.272 23.04 Z " fill="rgb(253,119,119)"/><path d=" M 41.752 22.392 L 41.752 6.936 L 41.752 6.936 Q 43.192 6.336 44.164 6.168 L 44.164 6.168 L 44.164 6.168 Q 45.136 6 45.472 6 L 45.472 6 L 45.472 6 Q 46.408 6 47.212 6.396 L 47.212 6.396 L 47.212 6.396 Q 48.016 6.792 48.592 7.452 L 48.592 7.452 L 48.592 7.452 Q 49.168 8.112 49.504 9 L 49.504 9 L 49.504 9 Q 49.84 9.888 49.84 10.872 L 49.84 10.872 L 49.84 18.6 L 49.84 18.6 Q 49.84 19.608 49.456 20.46 L 49.456 20.46 L 49.456 20.46 Q 49.072 21.312 48.436 21.948 L 48.436 21.948 L 48.436 21.948 Q 47.8 22.584 46.96 22.932 L 46.96 22.932 L 46.96 22.932 Q 46.12 23.28 45.208 23.28 L 45.208 23.28 L 45.208 23.28 Q 45.016 23.28 44.764 23.256 L 44.764 23.256 L 44.764 23.256 Q 44.512 23.232 44.104 23.148 L 44.104 23.148 L 44.104 23.148 Q 43.696 23.064 43.12 22.884 L 43.12 22.884 L 43.12 22.884 Q 42.544 22.704 41.752 22.392 L 41.752 22.392 Z  M 48.448 18.384 L 48.4 10.872 L 48.4 10.872 Q 48.4 9.792 47.908 8.988 L 47.908 8.988 L 47.908 8.988 Q 47.416 8.184 46.816 7.8 L 46.816 7.8 L 46.816 7.8 Q 46.072 7.392 45.472 7.392 L 45.472 7.392 L 45.472 7.392 Q 44.92 7.392 44.272 7.632 L 44.272 7.632 L 44.272 7.632 Q 43.624 7.872 43.096 8.088 L 43.096 8.088 L 43.096 21.288 L 43.096 21.288 Q 43.624 21.528 44.008 21.648 L 44.008 21.648 L 44.008 21.648 Q 44.392 21.768 44.656 21.816 L 44.656 21.816 L 44.656 21.816 Q 44.92 21.864 45.1 21.864 L 45.1 21.864 L 45.1 21.864 Q 45.28 21.864 45.4 21.864 L 45.4 21.864 L 45.4 21.864 Q 46 21.864 46.552 21.576 L 46.552 21.576 L 46.552 21.576 Q 47.104 21.288 47.524 20.808 L 47.524 20.808 L 47.524 20.808 Q 47.944 20.328 48.196 19.704 L 48.196 19.704 L 48.196 19.704 Q 48.448 19.08 48.448 18.384 L 48.448 18.384 Z  M 61.336 6.24 L 57.544 15.408 L 57.208 15.408 L 57.208 23.04 L 55.768 23.04 L 55.768 15.408 L 55.48 15.408 L 51.664 6.24 L 53.008 6.24 L 56.296 13.968 L 56.704 13.968 L 59.992 6.24 L 61.336 6.24 Z  M 63.568 23.04 L 63.568 6.24 L 64.936 6.24 L 64.936 21.696 L 70.264 21.696 L 70.264 23.04 L 63.568 23.04 Z  M 78.376 16.92 L 78.376 16.92 L 76.408 7.8 L 76.096 7.8 L 74.104 16.92 L 78.376 16.92 Z  M 73.72 18.336 L 73.72 18.336 L 72.664 23.016 L 71.368 23.016 L 75.208 6.216 L 77.248 6.216 L 81.088 23.016 L 79.816 23.016 L 78.736 18.336 L 73.72 18.336 Z  M 91.912 6.24 L 93.16 6.24 L 93.16 23.04 L 90.832 23.04 L 85.12 9.072 L 84.832 9.072 L 84.832 23.04 L 83.608 23.04 L 83.608 6.24 L 85.336 6.24 L 91.6 21.384 L 91.912 21.384 L 91.912 6.24 Z " fill="rgb(232,232,232)"/></g></svg>