<?xml version="1.0" encoding="UTF-8" standalone="no"?><!-- Generator: Gravit.io --><svg xmlns="http://www.w3.org/2000/svg" xmlns:xlink="http://www.w3.org/1999/xlink" style="isolation:isolate" viewBox="0 0 162 40" width="162pt" height="40pt"><defs><clipPath id="_clipPath_7Pavq48SQj3x0mavXcIQQvN70HbzGJ20"><rect width="162" height="40"/></clipPath></defs><g clip-path="url(#_clipPath_7Pavq48SQj3x0mavXcIQQvN70HbzGJ20)"><rect x="-16" y="-4" width="272" height="94" transform="matrix(1,0,0,1,0,0)" fill="rgb(52,58,64)"/><g style="isolation:isolate"/><g style="isolation:isolate"/><path d=" M 9.515 32.614 L 24.193 1 L 40 32.614 L 35.484 32.614 L 24.193 10.032 L 14.032 32.614 L 9.515 32.614 Z " fill="rgb(253,119,119)"/><path d=" M -0.081 32.614 L 14.596 1 L 29.274 32.614 L 24.758 32.614 L 14.596 10.032 L 4.435 32.614 L -0.081 32.614 Z " fill="rgb(253,119,119)"/><path d=" M -0.081 34.675 L -0.081 37 L 162 37 L 162 34.675 L -0.081 34.675 Z " fill="rgb(253,119,119)"/><path d=" M 29.274 2.837 L 30.274 5.163 L 162 5.163 L 162 2.837 L 29.274 2.837 Z " fill="rgb(253,119,119)"/><path d=" M 11.959 29.306 L 11.959 32.614 L 26 32.614 L 26 29.306 L 11.959 29.306 Z " fill="rgb(253,119,119)"/><path d=" M 102.112 22.154 L 102.496 22.154 L 105.664 11.714 L 107.752 11.714 L 107.752 28.514 L 106.456 28.514 L 106.456 14.546 L 106.144 14.546 L 103.336 23.57 L 101.248 23.57 L 98.464 14.546 L 98.176 14.546 L 98.176 28.514 L 96.904 28.514 L 96.904 11.714 L 98.992 11.714 L 102.112 22.154 Z  M 117.28 22.394 L 117.28 22.394 L 115.312 13.274 L 115 13.274 L 113.008 22.394 L 117.28 22.394 Z  M 112.624 23.81 L 112.624 23.81 L 111.568 28.49 L 110.272 28.49 L 114.112 11.69 L 116.152 11.69 L 119.992 28.49 L 118.72 28.49 L 117.64 23.81 L 112.624 23.81 Z  M 126.472 12.866 L 126.472 12.866 L 126.472 12.866 Q 126.04 12.866 125.584 12.962 L 125.584 12.962 L 125.584 12.962 Q 125.128 13.058 124.72 13.178 L 124.72 13.178 L 124.72 13.178 Q 124.264 13.322 123.808 13.49 L 123.808 13.49 L 123.808 20.234 L 126.472 20.234 L 126.472 20.234 Q 128.2 20.234 129.256 19.202 L 129.256 19.202 L 129.256 19.202 Q 130.312 18.17 130.312 16.274 L 130.312 16.274 L 130.312 16.274 Q 130.312 15.338 130.024 14.69 L 130.024 14.69 L 130.024 14.69 Q 129.736 14.042 129.232 13.634 L 129.232 13.634 L 129.232 13.634 Q 128.728 13.226 128.02 13.046 L 128.02 13.046 L 128.02 13.046 Q 127.312 12.866 126.472 12.866 Z  M 128.92 21.194 L 128.92 21.194 L 131.896 28.514 L 130.552 28.514 L 127.576 21.554 L 127.576 21.554 Q 127.144 21.626 126.64 21.626 L 126.64 21.626 L 123.784 21.626 L 123.784 28.514 L 122.512 28.514 L 122.512 12.41 L 122.512 12.41 Q 123.16 12.17 123.856 11.954 L 123.856 11.954 L 123.856 11.954 Q 124.456 11.762 125.188 11.618 L 125.188 11.618 L 125.188 11.618 Q 125.92 11.474 126.664 11.474 L 126.664 11.474 L 126.664 11.474 Q 127.648 11.474 128.56 11.798 L 128.56 11.798 L 128.56 11.798 Q 129.472 12.122 130.168 12.734 L 130.168 12.734 L 130.168 12.734 Q 130.864 13.346 131.272 14.234 L 131.272 14.234 L 131.272 14.234 Q 131.68 15.122 131.68 16.274 L 131.68 16.274 L 131.68 16.274 Q 131.68 17.09 131.488 17.87 L 131.488 17.87 L 131.488 17.87 Q 131.296 18.65 130.936 19.298 L 130.936 19.298 L 130.936 19.298 Q 130.576 19.946 130.06 20.438 L 130.06 20.438 L 130.06 20.438 Q 129.544 20.93 128.92 21.194 Z  M 141.712 11.714 L 141.712 11.714 L 143.056 11.714 L 139.168 28.514 L 137.128 28.514 L 133.36 11.714 L 134.68 11.714 L 138.016 26.93 L 138.328 26.93 L 138.328 26.93 Q 138.592 25.826 138.856 24.554 L 138.856 24.554 L 138.856 24.554 Q 139.096 23.474 139.396 22.118 L 139.396 22.118 L 139.396 22.118 Q 139.696 20.762 140.032 19.322 L 140.032 19.322 L 140.032 19.322 Q 140.776 15.986 141.712 11.714 Z  M 145.552 11.714 L 152.32 11.714 L 152.32 13.082 L 146.92 13.082 L 146.92 19.37 L 151.144 19.37 L 151.144 20.762 L 146.92 20.762 L 146.92 27.098 L 152.368 27.098 L 152.368 28.49 L 145.552 28.49 L 145.552 11.714 Z  M 155.272 28.514 L 155.272 11.714 L 156.64 11.714 L 156.64 27.17 L 161.968 27.17 L 161.968 28.514 L 155.272 28.514 Z " fill="rgb(253,119,119)"/><path d=" M 41.752 27.866 L 41.752 12.41 L 41.752 12.41 Q 43.192 11.81 44.164 11.642 L 44.164 11.642 L 44.164 11.642 Q 45.136 11.474 45.472 11.474 L 45.472 11.474 L 45.472 11.474 Q 46.408 11.474 47.212 11.87 L 47.212 11.87 L 47.212 11.87 Q 48.016 12.266 48.592 12.926 L 48.592 12.926 L 48.592 12.926 Q 49.168 13.586 49.504 14.474 L 49.504 14.474 L 49.504 14.474 Q 49.84 15.362 49.84 16.346 L 49.84 16.346 L 49.84 24.074 L 49.84 24.074 Q 49.84 25.082 49.456 25.934 L 49.456 25.934 L 49.456 25.934 Q 49.072 26.786 48.436 27.422 L 48.436 27.422 L 48.436 27.422 Q 47.8 28.058 46.96 28.406 L 46.96 28.406 L 46.96 28.406 Q 46.12 28.754 45.208 28.754 L 45.208 28.754 L 45.208 28.754 Q 45.016 28.754 44.764 28.73 L 44.764 28.73 L 44.764 28.73 Q 44.512 28.706 44.104 28.622 L 44.104 28.622 L 44.104 28.622 Q 43.696 28.538 43.12 28.358 L 43.12 28.358 L 43.12 28.358 Q 42.544 28.178 41.752 27.866 L 41.752 27.866 Z  M 48.448 23.858 L 48.4 16.346 L 48.4 16.346 Q 48.4 15.266 47.908 14.462 L 47.908 14.462 L 47.908 14.462 Q 47.416 13.658 46.816 13.274 L 46.816 13.274 L 46.816 13.274 Q 46.072 12.866 45.472 12.866 L 45.472 12.866 L 45.472 12.866 Q 44.92 12.866 44.272 13.106 L 44.272 13.106 L 44.272 13.106 Q 43.624 13.346 43.096 13.562 L 43.096 13.562 L 43.096 26.762 L 43.096 26.762 Q 43.624 27.002 44.008 27.122 L 44.008 27.122 L 44.008 27.122 Q 44.392 27.242 44.656 27.29 L 44.656 27.29 L 44.656 27.29 Q 44.92 27.338 45.1 27.338 L 45.1 27.338 L 45.1 27.338 Q 45.28 27.338 45.4 27.338 L 45.4 27.338 L 45.4 27.338 Q 46 27.338 46.552 27.05 L 46.552 27.05 L 46.552 27.05 Q 47.104 26.762 47.524 26.282 L 47.524 26.282 L 47.524 26.282 Q 47.944 25.802 48.196 25.178 L 48.196 25.178 L 48.196 25.178 Q 48.448 24.554 48.448 23.858 L 48.448 23.858 Z  M 61.336 11.714 L 57.544 20.882 L 57.208 20.882 L 57.208 28.514 L 55.768 28.514 L 55.768 20.882 L 55.48 20.882 L 51.664 11.714 L 53.008 11.714 L 56.296 19.442 L 56.704 19.442 L 59.992 11.714 L 61.336 11.714 Z  M 63.568 28.514 L 63.568 11.714 L 64.936 11.714 L 64.936 27.17 L 70.264 27.17 L 70.264 28.514 L 63.568 28.514 Z  M 78.376 22.394 L 78.376 22.394 L 76.408 13.274 L 76.096 13.274 L 74.104 22.394 L 78.376 22.394 Z  M 73.72 23.81 L 73.72 23.81 L 72.664 28.49 L 71.368 28.49 L 75.208 11.69 L 77.248 11.69 L 81.088 28.49 L 79.816 28.49 L 78.736 23.81 L 73.72 23.81 Z  M 91.912 11.714 L 93.16 11.714 L 93.16 28.514 L 90.832 28.514 L 85.12 14.546 L 84.832 14.546 L 84.832 28.514 L 83.608 28.514 L 83.608 11.714 L 85.336 11.714 L 91.6 26.858 L 91.912 26.858 L 91.912 11.714 Z " fill="rgb(232,232,232)"/></g></svg>