<?xml version="1.0" encoding="UTF-8" standalone="no"?><!-- Generator: Gravit.io --><svg xmlns="http://www.w3.org/2000/svg" xmlns:xlink="http://www.w3.org/1999/xlink" style="isolation:isolate" viewBox="0 0 240 40" width="240pt" height="40pt"><defs><clipPath id="_clipPath_Kb4U7bYXpU1wCv5EL3R0vDcroe0oaUca"><rect width="240" height="40"/></clipPath></defs><g clip-path="url(#_clipPath_Kb4U7bYXpU1wCv5EL3R0vDcroe0oaUca)"><g style="isolation:isolate"><rect x="-7.333" y="-6" width="279.333" height="62.333" transform="matrix(1,0,0,1,0,0)" fill="rgb(52,58,64)"/><path d=" M 124.4 24.47 L 118.72 24.47 L 117.65 30.53 L 111.61 30.53 L 116 5.53 L 122.38 5.53 L 123.38 13.52 L 127.22 5.53 L 133.77 5.53 L 129.38 30.53 L 123.34 30.53 L 124.4 24.47 Z " fill="rgb(52,58,64)"/><path d=" M 144.5 24.77 L 142.22 30.5 L 135.86 30.5 L 145.97 5.5 L 152.06 5.5 L 153.37 30.5 L 147.38 30.5 L 147.05 24.77 L 144.5 24.77 Z " fill="rgb(52,58,64)"/><path d=" M 168.51 22.1 L 167.4 22.1 L 165.93 30.53 L 159.89 30.53 L 163.8 8.12 C 163.81 8.11 163.81 8.11 163.81 8.11 C 163.94 7.41 164.43 6.83 165.09 6.58 C 165.1 6.58 165.11 6.58 165.12 6.57 L 166.07 6.25 L 167.08 5.94 L 167.25 5.89 L 167.98 5.7 L 169.01 5.46 C 169.02 5.46 169.03 5.46 169.04 5.46 C 169.42 5.38 169.81 5.33 170.2 5.28 C 170.58 5.25 170.95 5.23 171.33 5.23 C 171.86 5.23 172.39 5.27 172.91 5.36 C 173.41 5.45 173.9 5.59 174.37 5.77 C 174.85 5.95 175.32 6.19 175.76 6.48 C 176.18 6.77 176.57 7.1 176.92 7.48 C 177.28 7.86 177.58 8.28 177.83 8.74 C 178.09 9.21 178.29 9.71 178.43 10.22 C 178.58 10.74 178.66 11.28 178.68 11.82 C 178.68 11.83 178.68 11.84 178.68 11.85 L 178.68 12.05 C 178.68 12.05 178.68 12.05 178.68 12.06 C 178.68 12.59 178.64 13.13 178.55 13.66 C 178.48 14.07 178.38 14.47 178.26 14.87 C 178.14 15.27 178 15.66 177.83 16.04 C 177.67 16.42 177.49 16.79 177.29 17.15 C 177.09 17.51 176.87 17.85 176.63 18.18 C 176.4 18.52 176.14 18.84 175.87 19.14 C 175.6 19.44 175.32 19.72 175.02 19.98 C 174.84 20.14 174.66 20.29 174.47 20.43 L 176.77 30.53 L 170.69 30.53 L 168.51 22.1 Z " fill="rgb(52,58,64)"/><path d=" M 192.15 16.84 L 192.68 15.49 L 194.24 11.59 L 196.66 5.53 L 203.05 5.53 L 192.91 30.53 L 186.82 30.53 L 185.6 5.53 L 191.66 5.53 L 192.15 16.84 Z " fill="rgb(52,58,64)"/><path d=" M 209.47 5.53 L 222.23 5.53 L 221.17 11.63 L 214.54 11.63 L 213.95 14.92 L 219.16 14.92 L 218.03 21.02 L 212.86 21.02 L 212.27 24.37 L 218.94 24.37 L 217.92 30.5 L 205.08 30.5 L 209.47 5.53 Z " fill="rgb(52,58,64)"/><path d=" M 225.41 30.53 L 229.8 5.53 L 235.93 5.53 L 232.6 24.46 L 239.14 24.46 L 238.08 30.53 L 225.41 30.53 Z " fill="rgb(52,58,64)"/></g><g style="isolation:isolate"><path d=" M 19.52 13.64 C 19.52 13.67 19.51 13.7 19.51 13.72 L 19.52 13.57 L 19.52 13.64 Z " fill="rgb(0,0,0)"/><path d=" M 19.52 13.64 L 19.52 13.67 L 17.83 23.38 L 17.82 23.41 C 17.72 23.89 17.57 24.37 17.39 24.83 C 17.2 25.34 16.96 25.83 16.67 26.3 C 16.39 26.75 16.07 27.18 15.73 27.58 C 15.39 27.97 15.03 28.33 14.64 28.66 C 14.24 29 13.82 29.3 13.37 29.56 C 12.93 29.83 12.47 30.05 12 30.24 C 11.51 30.43 11 30.58 10.49 30.68 C 9.98 30.78 9.46 30.83 8.95 30.83 C 8.94 30.83 8.93 30.83 8.92 30.83 L 8.62 30.82 L 8.2 30.8 L 7.95 30.77 L 7.73 30.74 L 7.14 30.62 L 6.54 30.48 L 5.74 30.24 L 4.94 29.95 L 3.91 29.54 C 3.9 29.53 3.89 29.53 3.88 29.52 C 3.16 29.2 2.7 28.48 2.69 27.7 C 2.69 27.67 2.7 27.64 2.7 27.61 L 2.72 27.39 L 6.11 8.12 C 6.23 7.43 6.71 6.84 7.36 6.6 C 8.09 6.32 8.82 6.07 9.56 5.84 C 10.04 5.69 10.54 5.57 11.04 5.49 C 11.49 5.4 11.95 5.33 12.41 5.28 C 12.63 5.24 12.86 5.23 13.09 5.23 C 13.64 5.23 14.18 5.29 14.71 5.42 C 15.21 5.54 15.7 5.72 16.16 5.96 C 16.6 6.2 17.02 6.49 17.39 6.82 C 17.77 7.16 18.1 7.53 18.38 7.94 C 18.66 8.34 18.89 8.77 19.07 9.22 C 19.26 9.69 19.4 10.17 19.49 10.67 C 19.58 11.16 19.63 11.65 19.63 12.15 C 19.63 12.65 19.59 13.15 19.52 13.64 Z " fill="rgb(170,76,76)"/><line x1="4.08" y1="8.46" x2="4.08" y2="8.46"/><path d=" M 17.53 13.46 C 17.52 13.49 17.52 13.53 17.52 13.57 L 17.52 13.58 L 17.53 13.41 L 17.53 13.46 Z " fill="rgb(0,0,0)"/><path d=" M 17.33 13.65 C 17.33 13.68 17.32 13.7 17.32 13.73 L 17.33 13.57 L 17.33 13.65 Z " fill="rgb(0,0,0)"/><path d=" M 17.33 13.65 L 17.33 13.66 L 15.7 23.27 L 15.68 23.29 C 15.62 23.57 15.54 23.84 15.43 24.11 C 15.3 24.47 15.13 24.82 14.93 25.15 C 14.75 25.47 14.55 25.78 14.32 26.06 C 14.1 26.35 13.86 26.63 13.59 26.88 C 13.33 27.14 13.04 27.37 12.74 27.58 C 12.44 27.8 12.12 27.99 11.79 28.14 C 11.44 28.32 11.06 28.45 10.68 28.53 C 10.31 28.62 9.93 28.67 9.55 28.67 C 9.55 28.67 9.55 28.67 9.55 28.67 L 9.41 28.67 L 8.94 28.65 L 8.35 28.57 L 8.27 28.56 C 8.26 28.56 8.24 28.56 8.23 28.55 C 7.95 28.5 7.68 28.44 7.41 28.35 C 7.02 28.22 6.63 28.08 6.25 27.91 C 5.52 27.6 5.04 26.88 5.03 26.09 C 5.03 26.05 5.03 26.02 5.04 25.99 L 5.06 25.76 L 7.89 9.8 C 8 9.11 8.48 8.53 9.13 8.28 C 9.13 8.28 9.13 8.28 9.13 8.28 L 9.86 8 L 10.67 7.72 C 10.67 7.72 10.67 7.72 10.67 7.72 C 11.01 7.61 11.36 7.52 11.71 7.45 C 12.04 7.39 12.37 7.36 12.71 7.36 C 12.73 7.36 12.75 7.36 12.76 7.36 L 13.29 7.4 L 13.42 7.42 L 13.88 7.51 C 13.9 7.51 13.92 7.52 13.94 7.52 C 14.19 7.59 14.44 7.68 14.68 7.79 C 14.94 7.9 15.19 8.05 15.41 8.22 C 15.77 8.49 16.08 8.82 16.33 9.19 C 16.6 9.58 16.83 10 17.01 10.44 C 17.21 10.94 17.34 11.47 17.39 12 C 17.39 12.02 17.39 12.03 17.39 12.05 L 17.41 12.54 C 17.41 12.55 17.41 12.57 17.41 12.58 C 17.41 12.94 17.38 13.29 17.33 13.65 Z " fill="rgb(223,119,119)"/><path d=" M 13.8 22.51 C 13.79 22.55 13.78 22.59 13.77 22.63 C 13.73 22.9 13.66 23.15 13.56 23.4 C 13.47 23.66 13.35 23.91 13.21 24.15 C 13.07 24.39 12.91 24.62 12.74 24.84 C 12.58 25.05 12.4 25.25 12.21 25.44 C 12.01 25.63 11.8 25.8 11.58 25.96 C 11.38 26.1 11.16 26.23 10.93 26.34 C 10.7 26.45 10.47 26.53 10.22 26.59 C 10 26.64 9.78 26.67 9.55 26.67 L 9.45 26.67 L 9.12 26.65 L 8.61 26.59 L 8.57 26.58 C 8.39 26.55 8.2 26.5 8.03 26.45 C 7.69 26.34 7.36 26.21 7.04 26.07 L 7.04 26.04 L 9.85 10.14 L 9.85 10.14 L 10.54 9.88 L 11.31 9.62 C 11.56 9.53 11.82 9.46 12.09 9.41 C 12.28 9.38 12.47 9.36 12.67 9.36 L 13.05 9.38 L 13.05 9.39 L 13.47 9.47 C 13.6 9.5 13.73 9.55 13.86 9.61 C 13.98 9.66 14.09 9.72 14.19 9.8 C 14.38 9.95 14.55 10.13 14.69 10.33 C 14.87 10.6 15.03 10.89 15.15 11.2 C 15.28 11.5 15.36 11.83 15.39 12.16 L 15.41 12.6 C 15.41 12.87 15.39 13.14 15.34 13.41 C 15.34 13.43 15.34 13.44 15.34 13.46 L 13.8 22.51 Z " fill="rgb(52,58,64)"/><path d=" M 15.34 13.46 C 15.33 13.5 15.33 13.53 15.33 13.57 L 15.33 13.58 L 15.34 13.41 L 15.34 13.46 Z " fill="rgb(0,0,0)"/><path d=" M 35.43 20.67 L 33.69 30.53 L 27.68 30.53 L 29.57 19.81 L 26.11 5.53 L 32.25 5.53 L 33.84 11.87 L 37.67 5.53 L 44.33 5.53 L 35.43 20.67 Z " fill="rgb(170,76,76)"/><path d=" M 33.99 19.17 L 33.66 19.17 L 32.01 28.53 L 30.06 28.53 L 31.61 19.75 L 28.65 7.53 L 30.69 7.53 L 33.06 17.01 L 38.79 7.53 L 40.83 7.53 L 33.99 19.17 Z " fill="rgb(223,119,119)"/><path d=" M 45.52 30.53 L 49.91 5.53 L 56.04 5.53 L 52.71 24.46 L 59.25 24.46 L 58.19 30.53 L 45.52 30.53 Z " fill="rgb(170,76,76)"/><path d=" M 47.9 28.53 L 51.59 7.53 L 53.66 7.53 L 50.33 26.46 L 56.87 26.46 L 56.51 28.53 L 47.9 28.53 Z " fill="rgb(223,119,119)"/><path d=" M 77.81 22.61 L 71.02 22.61 C 70.36 22.61 69.74 22.29 69.37 21.74 C 69.15 21.41 69.02 21.02 69.02 20.61 C 69.02 20.36 69.07 20.12 69.16 19.89 L 70.22 17.15 L 70.76 15.81 L 71.29 14.48 L 72.36 11.83 L 72.89 10.48 L 73.42 9.12 C 73.71 8.35 74.46 7.84 75.28 7.84 L 77.23 7.84 L 77.81 22.61 Z " fill="rgb(0,0,0)"/><path d=" M 71.02 20.61 L 71.02 20.61 L 71.02 20.62 L 71.02 20.61 C 71.02 20.61 71.02 20.61 71.02 20.61 L 71.02 20.61 Z " fill="rgb(0,0,0)"/><path d=" M 71.45 24.77 L 69.17 30.5 L 62.81 30.5 L 72.92 5.5 L 79.01 5.5 L 80.32 30.5 L 74.33 30.5 L 74 24.77 L 71.45 24.77 Z " fill="rgb(170,76,76)"/><path d=" M 70.09 22.77 L 67.81 28.5 L 65.77 28.5 L 74.26 7.5 L 77.11 7.5 L 78.22 28.5 L 76.21 28.5 L 75.88 22.77 L 70.09 22.77 Z " fill="rgb(223,119,119)"/><path d=" M 94.46 21.33 L 92.85 30.53 L 86.87 30.53 L 91.26 5.53 L 96.98 5.53 L 99.53 16.33 L 101.43 5.53 L 107.44 5.53 L 103.05 30.53 L 96.61 30.53 L 94.46 21.33 Z " fill="rgb(170,76,76)"/><path d=" M 94.18 11.33 L 91.17 28.53 L 89.25 28.53 L 92.94 7.53 L 95.4 7.53 L 99.81 26.25 L 103.11 7.53 L 105.06 7.53 L 101.37 28.53 L 98.19 28.53 L 94.18 11.33 Z " fill="rgb(223,119,119)"/><path d=" M 127.093 20.83 L 134.285 5.563 L 137.563 5.563 L 133.1 30.539 L 130.87 30.539 L 134.402 10.492 L 128.276 23.049 L 125.066 23.049 L 123.422 10.627 L 119.891 30.539 L 117.661 30.539 L 122.123 5.563 L 125.434 5.563 L 127.093 20.83 Z " fill="rgb(255,255,255)"/><path d=" M 144.07 20.61 L 144.07 20.61 C 144.07 20.61 144.07 20.61 144.07 20.61 C 144.07 20.61 144.07 20.61 144.07 20.61 L 144.07 20.61 L 144.07 20.61 L 144.07 20.61 L 144.07 20.61 L 144.07 20.61 L 144.07 20.61 C 144.07 20.61 144.07 20.62 144.07 20.62 L 144.07 20.61 C 144.07 20.61 144.07 20.61 144.07 20.61 L 144.07 20.61 L 144.07 20.62 C 144.07 20.62 144.07 20.62 144.07 20.62 L 144.07 20.62" fill="rgb(0,0,0)"/><path d=" M 146.893 23.346 L 143.938 30.438 L 141.704 30.438 L 151.961 5.5 L 154.539 5.5 L 155.828 30.469 L 153.628 30.469 L 153.231 23.346 L 146.893 23.346 Z " fill="rgb(255,255,255)"/><path d=" M 174.49 11.48 C 174.56 11.72 174.59 11.98 174.59 12.23 C 174.59 12.24 174.59 12.25 174.59 12.25 L 174.59 12.37 C 174.59 12.69 174.56 13 174.51 13.31 C 174.37 14.04 174.13 14.74 173.78 15.39 C 173.5 15.92 173.12 16.38 172.66 16.77 C 172.44 16.96 172.19 17.13 171.93 17.28 C 171.67 17.43 171.41 17.56 171.13 17.66 C 170.83 17.76 170.53 17.83 170.22 17.88 C 169.89 17.94 169.55 17.97 169.2 17.97 C 169.2 17.97 169.2 17.97 169.2 17.97 L 166.14 17.97 L 167.51 10.03 L 168.1 9.85 L 168.38 9.76 L 168.63 9.69 L 168.86 9.64 L 169.11 9.58 L 169.39 9.52 L 169.65 9.47 L 170.22 9.39 L 170.72 9.36 C 171.05 9.36 171.37 9.38 171.68 9.41 C 171.95 9.45 172.22 9.5 172.48 9.57 C 172.74 9.64 172.99 9.73 173.23 9.85 C 173.43 9.97 173.62 10.1 173.79 10.25 C 173.96 10.4 174.1 10.58 174.21 10.77 C 174.34 10.99 174.43 11.23 174.49 11.48 Z " fill="rgb(0,0,0)"/><path d=" M 174.621 19.251 L 177.352 30.539 L 175.059 30.539 L 172.193 19.905 L 171.025 19.953 L 167.328 19.953 L 165.569 30.539 L 163.344 30.539 Q 165.832 15.502 167.11 7.58 C 167.177 6.997 167.277 6.662 168.343 6.285 C 170.44 5.647 170.958 5.457 172.591 5.277 C 174.214 5.244 175.795 5.37 177.248 6.438 C 179.048 7.915 179.368 9.875 179.296 12.054 C 179.215 14.515 176.52 17.694 176.25 17.948 Q 175.992 18.19 174.621 19.251 Z " fill="rgb(255,255,255)"/><path d=" M 190.532 27.837 L 192.755 22.212 L 192.921 21.796 L 193.706 19.834 L 195.276 15.875 L 197.131 11.237 L 199.414 5.53 L 201.875 5.53 L 191.744 30.5 L 188.356 30.5 L 187.143 5.53 L 189.568 5.53 L 190.532 27.837 Z " fill="rgb(255,255,255)"/><path d=" M 209.539 5.563 L 222.079 5.59 L 221.612 8.269 L 211.775 8.213 L 210.301 16.608 L 217.201 16.608 L 216.683 19.4 L 209.783 19.4 L 208.356 27.656 L 218.224 27.656 L 217.745 30.487 L 205.125 30.487 L 209.539 5.563 Z " fill="rgb(255,255,255)"/><path d=" M 226 30.516 L 230.471 5.472 L 233.009 5.472 L 228.98 27.978 L 238.263 27.99 L 237.821 30.528 L 226 30.516 Z " fill="rgb(255,255,255)"/></g><g style="isolation:isolate"><path d=" M 152.095 10.269 L 147.573 21.631 L 153.071 21.631 L 152.689 10.269 L 152.095 10.269 Z " fill="rgb(52,58,64)"/><path d=" M 74.861 10.91 L 70.845 21 L 75.728 21 L 75.388 10.91 L 74.861 10.91 Z " fill="rgb(52,58,64)"/><path d=" M 168.318 16.934 Q 169.092 11.59 169.502 8.824 C 169.543 8.574 169.921 8.357 170.039 8.313 C 171.951 7.59 173.633 7.57 174.957 8.016 C 176.363 8.648 177.16 10.699 176.721 12.46 C 176.172 14.188 174.859 15.813 173.922 16.375 Q 172.258 17.09 168.318 16.934 Z " fill="rgb(52,58,64)"/></g></g></svg>