<?xml version="1.0" encoding="UTF-8" standalone="no"?><!-- Generator: Gravit.io --><svg xmlns="http://www.w3.org/2000/svg" xmlns:xlink="http://www.w3.org/1999/xlink" style="isolation:isolate" viewBox="0 0 40 40" width="40pt" height="40pt"><defs><clipPath id="_clipPath_uqmmrmAe4vqDm9VA4aF07trZNuxjvBac"><rect width="40" height="40"/></clipPath></defs><g clip-path="url(#_clipPath_uqmmrmAe4vqDm9VA4aF07trZNuxjvBac)"><rect x="-16" y="-4" width="114" height="94" transform="matrix(1,0,0,1,0,0)" fill="rgb(52,58,64)"/><g style="isolation:isolate"/><g style="isolation:isolate"/><g><path d=" M 9.515 32.614 L 24.193 1 L 40 32.614 L 35.484 32.614 L 24.193 10.032 L 14.032 32.614 L 9.515 32.614 Z " fill="rgb(253,119,119)"/><path d=" M -0.081 32.614 L 14.596 1 L 29.274 32.614 L 24.758 32.614 L 14.596 10.032 L 4.435 32.614 L -0.081 32.614 Z " fill="rgb(253,119,119)"/><path d=" M -0.081 34.675 L -0.081 38.062 L 40 38.062 L 40 34.675 L -0.081 34.675 Z " fill="rgb(253,119,119)"/><path d=" M 11.959 29.306 L 11.959 32.614 L 26 32.614 L 26 29.306 L 11.959 29.306 Z " fill="rgb(253,119,119)"/></g></g></svg>